<svg fill="#005072" height="148" version="1.1" viewBox="0 0 148 148" width="148"
    xmlns="http://www.w3.org/2000/svg">
    <g fill-rule="evenodd" id="Page-1" stroke="none" stroke-width="1">
        <g id="Machine-Linework-148px" transform="translate(-1076.000000, -713.000000)">
            <g id="Machine-Linework-/-AT960" transform="translate(1076.000000, 713.000000)">
                <rect fill-opacity="0" id="Rectangle" x="0" y="0">
                </rect>
                <path
                    d="M55.2973441,1.97340489 L55.4948351,1.98097323 L59.4147837,2.26486653 C60.2368748,2.32313284 61.0055754,2.6510358 61.6207786,3.16799433 C65.5583219,2.73719555 69.0881564,2.39503595 72.3122095,2.51528769 C78.0456122,2.72417861 82.9532836,3.74507874 86.6918262,5.48624964 C86.9521044,5.37281629 87.2354377,5.310211 87.5296917,5.30897129 C89.1635598,5.29099551 90.2829384,5.47013342 91.089255,5.59410429 C91.4004969,5.64121323 91.6704825,5.68274347 91.9186266,5.70443837 C92.9130231,5.79121798 93.8030656,6.32429273 94.359418,7.16791451 L94.359418,7.16791451 L94.7125228,7.69850984 C96.0048136,9.63679443 98.4104159,13.2437269 101.250422,19.0474233 C105.665445,28.0675439 109.695815,42.3272935 111.52019,55.3764675 C113.056378,66.3596668 113.217156,100.620257 113.229902,110.859631 C113.23293,112.56485 111.979469,113.962002 110.314052,114.107668 L110.314052,114.107668 L95.4836503,114.804384 C95.1863628,114.818641 94.891502,114.871948 94.6002816,114.94943 L94.6002816,114.94943 L96.7389318,115.983347 C96.9506733,116.086243 97.0859695,116.303812 97.0859695,116.543696 L97.0859695,116.543696 L97.0859695,116.650311 L100.750494,125.568155 C100.780829,125.641298 100.796603,125.7194 100.797817,125.798121 L100.797817,125.798121 L100.890037,131.722689 L100.890037,131.722689 L100.917945,131.734466 C101.667231,132.212994 101.627188,133.717381 101.335361,137.577833 C101.285611,138.238598 101.236468,138.891925 101.201279,139.492564 C101.189751,139.706413 101.070229,139.898568 100.886396,140.000844 C100.641286,140.136592 100.448352,140.267382 100.129223,140.483711 C99.3775105,140.992611 97.9784389,141.940368 93.77091,144.382595 C91.5418601,145.676851 87.3258373,146.134303 82.6110995,146.134303 C73.984907,146.134303 63.6829835,144.603883 60.7774527,143.861917 C56.5693172,142.787709 53.3046146,139.59298 52.6081123,138.87023 L52.6081123,138.87023 L48.4849161,138.067518 C48.4570074,138.06256 48.4297055,138.055121 48.4024036,138.045204 L48.4024036,138.045204 L48.109363,137.942928 C47.5821326,138.279509 46.9954448,138.465465 46.3844885,138.465465 C44.4642537,138.465465 42.9019773,136.733592 42.9019773,134.605012 C42.9019773,132.477052 44.4642537,130.745799 46.3844885,130.745799 C48.0972288,130.745799 49.5424103,132.14543 49.8093624,133.993216 C50.4057576,134.250455 51.4523311,134.44447 52.3029375,134.549845 L52.3029375,134.549845 L52.3029375,132.673546 C52.3029375,131.212549 53.5472983,130.719145 55.6101098,129.902177 L55.6101098,129.902177 L56.2969047,129.628201 L56.3727434,118.273709 C56.0481539,118.200566 55.7702811,118.124944 55.5227437,118.043123 C53.8603603,118.010271 52.3253858,117.919772 51.0306682,117.740015 C50.7321672,117.698484 50.1782417,117.63092 49.4744589,117.544141 C47.1610764,117.259627 43.2890578,116.783579 41.4240335,116.393691 C40.0929133,116.114756 38.2109011,115.37527 35.6706094,114.133082 C34.5105812,113.565295 33.7746429,112.349761 33.7942658,111.03505 L33.7942658,111.03505 L33.8377407,107.97235 C33.9973052,96.3327244 34.4207883,65.4137691 35.7470548,55.8345398 C36.8051557,48.1867767 37.9579034,43.0469444 38.9462328,39.026569 C39.8641839,35.2925664 41.8669312,27.7576168 43.2514418,23.440951 C45.2026189,17.3546011 50.4743158,7.23547864 52.579597,3.5541636 C53.1838794,2.49669206 54.3056849,1.89791275 55.4948351,1.98097323 Z M53.5163561,133.310136 L53.5163561,138.044584 C54.2438005,138.780971 57.3082891,141.698005 61.0717067,142.660019 C65.8465088,143.878033 87.5284782,146.579358 93.1714812,143.305288 C97.3426075,140.883517 98.7192309,139.951256 99.4588095,139.450413 C99.6735846,139.305368 99.8410363,139.191934 100.010308,139.085939 C100.043071,138.57332 100.084327,138.030327 100.125583,137.482376 C100.208095,136.398251 100.313663,134.970726 100.31609,133.943007 C98.910951,135.439956 94.1221947,138.078676 77.8108157,138.078676 C76.9232001,138.078676 76.0034288,138.070618 75.0460416,138.054501 C69.2525747,137.956564 65.0432257,136.737311 62.1037192,135.355036 C62.0151397,135.452353 61.9077521,135.533554 61.7797365,135.586241 C60.5323422,136.099481 59.4645339,136.300933 58.5532565,136.300933 C55.9698884,136.301553 54.6430152,134.681254 54.0472267,133.952305 C53.9641075,133.851269 53.8985829,133.765729 53.8427657,133.712422 C53.6892682,133.581632 53.5873411,133.444025 53.5163561,133.310136 L53.5163561,133.310136 Z M46.9857374,133.210959 C46.661148,133.104345 46.3650738,133.130998 46.1054023,133.290921 C45.8505844,133.448984 45.6400562,133.734736 45.5162876,134.075036 C45.475638,134.18909 45.4434824,134.308722 45.423461,134.432073 C45.3597566,134.816382 45.4477294,135.203791 45.6691783,135.521777 C45.8912339,135.839762 46.220677,136.050512 46.5974435,136.114977 C46.6302058,136.120556 46.6623614,136.128614 46.6939103,136.139771 L46.6939103,136.139771 L48.2234244,136.672846 C48.2240311,136.672846 48.2246378,136.673466 48.2252445,136.674086 L48.2252445,136.674086 L48.7536883,136.858183 L52.3029375,137.54932 L52.3029375,135.799471 C51.421389,135.697195 49.7699263,135.446774 48.9466218,134.939733 C48.1221039,134.430833 47.7052946,133.948586 47.4013333,133.596509 C47.3261013,133.509729 47.2666438,133.442785 47.2126467,133.386378 C47.1234604,133.29278 47.0536889,133.233894 46.9857374,133.210959 Z M45.7165016,132.1008 C44.7906633,132.431803 44.1153958,133.429148 44.1153958,134.605012 C44.1153958,135.733147 44.7360594,136.69702 45.603047,137.065214 C45.5684646,137.047238 45.5405559,137.018105 45.5059735,136.99827 C45.4064732,136.938144 45.3142534,136.871819 45.2238537,136.799916 C45.1643962,136.752807 45.104332,136.708798 45.0491214,136.65673 C44.9399137,136.553214 44.8422335,136.439781 44.7512272,136.320769 C44.7299923,136.291636 44.701477,136.27118 44.6814556,136.241427 C44.6778153,136.236469 44.6759952,136.23151 44.6723549,136.225931 C44.6286719,136.162086 44.597123,136.090803 44.5582936,136.023239 C44.3453386,135.648847 44.2179297,135.237883 44.1966949,134.810804 L44.1966949,134.810804 L44.1912345,134.764934 C44.1863808,134.586416 44.1966949,134.406659 44.2264236,134.226901 C44.3671802,133.375841 44.8331329,132.630156 45.475638,132.23097 C45.5545102,132.182621 45.6345959,132.139231 45.7165016,132.1008 Z M61.8507215,133.820896 C64.6707062,135.290571 68.953467,136.711277 75.066063,136.814793 C85.0986076,136.988972 91.0649866,136.22903 94.6081688,135.315985 C94.3830797,135.353176 94.1592039,135.388508 93.9438222,135.411442 C84.1533545,136.474493 69.973952,136.235849 61.8507215,133.820896 Z M96.2026008,117.702203 C94.5414308,118.856372 91.5473205,118.973525 88.4009262,119.090677 L88.4009262,119.090677 L88.0150591,119.105554 C84.0744823,119.256178 77.6694525,119.404943 72.0950076,119.404943 L71.6490421,119.40462 C67.5045406,119.398556 63.8761681,119.306493 62.1504358,119.066503 C61.4812355,118.973525 60.8029345,118.891704 60.1416214,118.812363 C59.2351978,118.703268 58.374884,118.598513 57.5849485,118.472063 L57.5849485,118.472063 L57.5054696,130.35901 C59.4220642,132.236548 64.4061809,133.63556 71.7370491,134.326697 C78.5752694,134.970726 87.0352236,134.914939 93.8158065,134.179172 C96.14375,133.926271 98.6458191,132.904132 99.6832919,132.22849 L99.6832919,132.22849 L99.5862184,125.937588 Z M57.1651057,132.054311 C56.7671044,132.270021 56.3945849,132.460316 56.0699955,132.622718 C55.9013303,132.707638 55.7168907,132.800616 55.5488322,132.888635 C56.2210661,133.698785 57.3968686,134.927336 60.0117856,134.23 C58.6709581,133.406833 57.7420862,132.617759 57.1651057,132.054311 Z M90.2974994,86.2160814 L87.875516,86.5266284 C87.8749092,87.0132141 87.8561013,87.566744 87.8184853,88.1624241 C87.8112048,88.269039 87.8027108,88.3775135 87.7954303,88.4859881 C87.7930035,88.52008 87.7905767,88.5529323 87.7881498,88.5864045 C87.5218044,92.0724654 86.6366156,96.7207532 85.0015341,98.4470476 L85.0015341,98.4470476 L84.8820124,98.5669119 L84.8820124,98.5669119 L84.7885791,98.6528393 C84.7661309,98.6720547 84.7430759,98.6887908 84.720021,98.7067666 C84.6684507,98.7489167 84.6162737,98.7910668 84.5628833,98.8270183 C84.5240539,98.8536721 84.4840111,98.8747471 84.4433616,98.8983016 C84.4045322,98.9212362 84.3650961,98.9466502 84.3250533,98.9664856 C84.2431475,99.0073959 84.1588149,99.0408681 84.0744823,99.0662821 C84.0192718,99.0830182 83.9634545,99.0910763 83.908244,99.0910763 C83.9058171,99.0910763 83.903997,99.092316 83.9015702,99.092316 C83.8942897,99.092316 83.8876159,99.0885969 83.8803354,99.087977 C83.8202711,99.0861175 83.7626338,99.0737204 83.7062098,99.053885 C83.6886152,99.0476865 83.6722341,99.0408681 83.6546395,99.0340497 C83.5927552,99.0055364 83.5332976,98.9695848 83.4823341,98.9206163 C83.3415775,98.7830087 83.1996075,98.6354833 83.0582443,98.4780403 C83.0084941,98.4234931 82.958744,98.3621276 82.9089938,98.3044811 C82.816774,98.198486 82.7239475,98.0937306 82.6317277,97.9796774 C82.5722702,97.9065346 82.5140261,97.8265734 82.4545686,97.7509512 C82.3708427,97.6443362 82.2877235,97.5402007 82.205211,97.4273872 C82.1421133,97.3424671 82.0802289,97.2513485 82.0177379,97.1633292 C81.938259,97.0517554 81.85878,96.9420412 81.7799078,96.8242689 C81.7162034,96.7312907 81.6537123,96.632114 81.5900078,96.5354168 C81.5117423,96.4157849 81.4334768,96.2986324 81.355818,96.1740417 C81.2927203,96.0723856 81.2296225,95.9663905 81.1671315,95.8622549 C81.0900794,95.7351848 81.013634,95.6105941 80.9377954,95.4798048 C80.8740909,95.3719501 80.8128132,95.2585168 80.7497155,95.146943 C80.6744835,95.0130545 80.5992516,94.8816453 80.5246263,94.7440377 C80.462742,94.6293646 80.4014644,94.5109724 80.3401867,94.3932001 C80.2655615,94.253113 80.1921497,94.1136458 80.1193445,93.9710793 C80.0586736,93.8495878 79.9980027,93.725617 79.9373318,93.6022659 C79.8657401,93.4566002 79.7935417,93.3103145 79.7225567,93.1609296 C79.6630992,93.0363389 79.6054618,92.9080291 79.5472177,92.7809589 C79.4768394,92.6284747 79.4058544,92.4766104 79.3372963,92.321027 C79.2790522,92.1902377 79.2226282,92.056969 79.1649908,91.92494 C79.0976461,91.7681169 79.0296947,91.6112937 78.9641701,91.452611 C78.9071394,91.3168629 78.8519289,91.1786354 78.7967183,91.0410277 C78.7318004,90.8804854 78.6674892,90.7211829 78.6037848,90.5581612 C78.5491809,90.4174542 78.4957905,90.2755076 78.4430068,90.1329411 C78.3811225,89.9705392 78.3198448,89.8075175 78.2603873,89.6426363 C78.2069969,89.4975904 78.1560333,89.3506849 78.1038563,89.2031595 C78.0462189,89.0388981 77.9891883,88.873397 77.9327643,88.7072761 C77.8824074,88.5572713 77.8326573,88.4066467 77.7841205,88.2554022 C77.7295167,88.0899011 77.6761263,87.9237801 77.6239493,87.7564195 C77.5754125,87.6026956 77.5286959,87.447732 77.4819793,87.2915287 C77.453464,87.1960711 77.4225218,87.1012334 77.3940065,87.005156 L77.3940065,87.005156 L74.5655278,86.8241585 C74.5976834,88.4828888 74.6286256,90.1682728 74.6601745,91.8511774 C74.8318732,101.148993 74.9920444,110.48214 75.0697032,115.100055 C75.0903313,116.365797 74.1007885,117.41831 72.8631016,117.447443 C71.482838,117.479676 69.7221676,117.572034 67.682411,117.679269 C66.1826257,117.75799 64.5809132,117.841671 62.9603927,117.910474 C67.3820899,118.329496 80.224912,118.162216 87.9701626,117.867085 L87.9701626,117.867085 L88.3560297,117.852208 C91.170554,117.746833 94.0645573,117.635879 95.4502813,116.731511 L95.4502813,116.731511 L92.8511387,115.473207 L92.8511387,115.473207 L92.8481052,115.472587 L92.2256215,115.171338 C92.0757643,115.098815 91.9635231,114.967406 91.9113461,114.810583 C91.8937515,114.757895 91.8834374,114.703348 91.8804039,114.646321 L91.8804039,114.646321 L90.2974994,86.2160814 Z M55.6392319,3.23369889 C55.4857344,7.81504246 54.5477619,38.7594118 54.5477619,46.3743226 L54.5473035,46.6160703 C54.5171539,55.1251806 53.0095961,115.86811 52.9939794,116.487289 C52.9921593,116.559812 52.9733513,116.627376 52.9490829,116.691221 C53.7748143,116.751347 54.6648568,116.787298 55.5973689,116.805274 L55.5973689,116.805274 L55.617997,116.800935 C56.0645351,116.808993 56.5232073,116.811473 56.9855198,116.812093 C56.9867332,116.812093 56.9879466,116.813332 56.9897667,116.813332 C56.9970472,116.809613 57.0255626,116.813332 57.0437638,116.813332 C57.7766687,116.813332 58.5265613,116.802795 59.2831278,116.786679 C59.347439,116.701139 59.4263112,116.624897 59.5318786,116.580887 C59.9159256,116.422824 60.2174601,116.318069 60.4540767,116.235628 C60.6561109,116.164965 60.885447,116.085623 60.9327703,116.042853 C60.9879809,115.964132 61.0559323,115.54759 61.1281307,115.106873 L61.1281307,115.106873 L61.1809144,114.78021 C61.5152112,112.771262 61.6147115,94.5066334 61.5965103,87.9039448 C61.5910499,86.0697958 61.5892298,83.8916275 61.5868029,81.4989897 C61.5764889,71.0439062 61.5619278,56.7265102 61.2864818,48.7923744 C60.9212428,38.294521 57.6880891,6.53504321 57.3507587,3.45002807 C57.3471185,3.41779564 57.3574325,3.38866248 57.358646,3.35766977 L57.358646,3.35766977 Z M58.5720645,3.44568909 C58.9761329,7.20510577 62.1376949,38.3478285 62.498687,48.7489846 C62.7753464,56.7041955 62.7899074,71.0339886 62.8002215,81.4971302 C62.8026483,83.8891481 62.8044684,86.0666965 62.8099288,87.9002257 C62.8238831,92.9991476 62.7522914,112.733451 62.3779518,114.987861 L62.3779518,114.987861 L62.3245614,115.310805 C62.2129269,115.996364 62.1340547,116.411667 61.9514352,116.707337 C63.8874445,116.634194 65.8192068,116.534398 67.6217401,116.44018 C69.6693839,116.332945 71.4379415,116.240587 72.8357997,116.207735 C73.4085332,116.194098 73.8665987,115.706892 73.8562847,115.12113 C73.8502176,114.761614 73.8435438,114.343833 73.8356565,113.883901 C73.7925802,111.337539 73.7319093,107.818006 73.6621377,103.829243 C73.6609243,103.75548 73.6591041,103.681718 73.6578907,103.606715 C73.6481834,103.058764 73.6390827,102.502755 73.6287687,101.938687 C73.5414025,97.0077458 73.4400821,91.4346352 73.3387616,86.1764107 L73.3387616,86.1764107 L73.3072128,84.5158209 C73.2823377,83.2166061 73.2568559,81.9465246 73.2319808,80.7179732 L73.2319808,80.7179732 C73.1913313,78.7455967 73.154322,76.9752926 73.1197396,75.399003 L73.1197396,75.399003 L73.1160993,75.2291629 C73.1112457,75.0208918 73.1076054,74.824398 73.1033584,74.6229453 C73.0341936,71.5261529 72.9759495,69.2568661 72.9304463,67.8473173 C72.9298396,67.8373996 72.9292329,67.8262423 72.9292329,67.8157047 C72.9249859,67.6935934 72.920739,67.5807799 72.9170987,67.4710657 C72.9152786,67.4276759 72.9140651,67.3855258 72.912245,67.3446154 C72.9092115,67.2609351 72.9067846,67.1809739 72.9037511,67.1065913 C72.9013243,67.0415066 72.8988974,66.9826205 72.8964706,66.9243542 C72.8946505,66.8803445 72.8922236,66.8338554 72.8910102,66.7923252 C72.8904035,66.7879862 72.8904035,66.7830274 72.8897968,66.7793082 C72.8855498,66.6788918 72.8819096,66.5877732 72.8776626,66.5102915 C72.6361923,61.9475435 71.4543226,47.172695 69.9612111,37.6852042 L69.9429424,37.5691078 C69.9299993,37.4889858 69.9157079,37.4039969 69.9011469,37.3176305 C69.8847657,37.2165943 69.8671712,37.1099793 69.8477565,36.9959261 C69.8447229,36.9791901 69.8422961,36.962454 69.8386558,36.9457179 C69.7203475,36.2508612 69.5528957,35.3247988 69.3429743,34.2146396 C69.3411542,34.2072014 69.3399408,34.1985234 69.3381207,34.1898455 C69.3053584,34.0175259 69.2701692,33.8365285 69.2355868,33.6549111 C69.214352,33.5427175 69.1925104,33.4305239 69.1700622,33.315231 C69.1470072,33.1962189 69.1233456,33.0747275 69.0996839,32.9513764 C69.0602478,32.7480642 69.0189916,32.5410329 68.9771286,32.3290427 C68.9662079,32.2744955 68.9558938,32.2199483 68.944973,32.1635416 C68.7678139,31.2709513 68.5742737,30.3163756 68.3667791,29.3196498 L68.3667791,29.3196498 L68.3303765,29.1417515 C68.2788063,28.8956694 68.2266293,28.6477276 68.1738456,28.3979263 C68.1338027,28.2107303 68.0937599,28.0216747 68.0537171,27.8319993 C68.0294487,27.7179461 68.0045737,27.6045127 67.9803053,27.4904595 C67.9214545,27.2152442 67.8613903,26.9375494 67.8007193,26.6567554 C67.6041455,25.7530078 67.4002912,24.8343836 67.1897631,23.9070815 C67.1867296,23.8934447 67.187943,23.879188 67.1855161,23.8655512 C66.0315551,18.8013411 64.644011,13.383814 63.2346253,9.255584 C63.2328052,9.25062516 63.2291649,9.24690603 63.2273448,9.24132734 C63.0793077,8.80680944 62.9324841,8.39212687 62.7880873,7.9978995 C62.7826269,7.983023 62.7771665,7.97000605 62.7717061,7.95512955 C62.6418704,7.60181256 62.513248,7.26771106 62.3852323,6.94600665 C62.3621774,6.88774034 62.3391224,6.82885418 62.3154608,6.77058787 C62.2026128,6.4904137 62.0909783,6.22635574 61.981164,5.97345516 C61.9556822,5.914569 61.9302004,5.85258356 61.9041119,5.79493711 C61.772456,5.49864672 61.6432269,5.21909241 61.5158179,4.9624727 C61.455147,4.84036139 61.3811285,4.7207295 61.2974026,4.60543659 L61.2974026,4.60543659 L61.2816282,4.58622111 C61.1979023,4.47340761 61.1032556,4.36369339 60.9976882,4.25955786 C60.9970815,4.258938 60.9970815,4.25831815 60.9964748,4.2576983 C60.5529703,3.8244201 59.9656757,3.54672535 59.3298444,3.50085612 L59.3298444,3.50085612 Z M54.4191395,3.42895302 C54.0975836,3.59507399 53.8184973,3.84487529 53.6267772,4.17897679 C51.3067209,8.23716328 46.2188569,18.1672301 44.4041894,23.8271203 C43.0293862,28.1146529 41.036953,35.6111715 40.1226421,39.3278182 C39.1421999,43.3172009 37.9985529,48.4179824 36.9483391,56.008099 C35.6329934,65.5098465 35.210117,96.3717752 35.0511592,107.989705 L35.0511592,107.989705 L35.0080829,111.054265 C34.9947352,111.88673 35.460688,112.655969 36.1941995,113.014245 C38.6101158,114.196307 40.4514785,114.924636 41.6673239,115.179396 C43.4832048,115.558127 47.3248879,116.031076 49.6200691,116.31373 C50.3317391,116.400509 50.8911251,116.469933 51.1932663,116.511463 C51.3892334,116.538737 51.5961212,116.561671 51.8030091,116.584606 C51.7951219,116.541836 51.7793474,116.500926 51.7805609,116.455676 C51.796942,115.830863 53.3343433,53.8764199 53.3343433,46.3743226 C53.3343433,38.8672664 54.2431938,8.76032036 54.4191395,3.42895302 Z M94.8514592,69.7360135 C91.9161997,76.7316898 87.3046025,81.3589026 82.2677021,81.876481 L82.2677021,81.876481 L82.3684158,84.268499 C82.5134194,84.2647799 82.6541759,84.2623004 82.7906855,84.2623004 C82.8179874,84.2623004 82.8434692,84.2629203 82.8701644,84.2629203 C83.0758389,84.26416 83.2718059,84.2678791 83.4495718,84.2753174 C83.5927552,84.2815159 83.7541398,84.2920535 83.927052,84.3050704 C83.9294788,84.3050704 83.9312989,84.3050704 83.9331191,84.3056903 C83.998037,84.3106491 84.0653817,84.3168476 84.1333331,84.3224263 L84.1333331,84.3224263 L84.2219127,84.3304844 C84.2753031,84.3354433 84.3305136,84.3416418 84.3857242,84.3472205 C84.4318341,84.3521793 84.4773373,84.3571382 84.5246606,84.362097 C84.5719839,84.3682955 84.619914,84.3738742 84.667844,84.3794529 C84.724268,84.3862713 84.7806919,84.3937096 84.8377226,84.400528 L84.8377226,84.400528 L84.9639181,84.4191236 C85.028836,84.4278016 85.0931472,84.4370994 85.1580651,84.4476369 C85.1956811,84.4525957 85.233297,84.4594141 85.2703063,84.4656127 C85.3412913,84.4767701 85.4110629,84.4885473 85.4808344,84.5009444 C85.5148102,84.5071429 85.5481792,84.5133415 85.5821549,84.5201599 C85.6543533,84.5337967 85.7265517,84.5474335 85.7981434,84.56231 L85.7981434,84.56231 L85.8958236,84.583385 C85.9674153,84.5995012 86.0377935,84.6149976 86.1081718,84.6317336 C86.1403274,84.6391719 86.1712696,84.6478499 86.2034252,84.6552881 L86.2034252,84.6552881 L86.4036392,84.7085956 C86.4351881,84.7178934 86.4673437,84.7278111 86.4988926,84.736489 C86.5619904,84.7557045 86.6244814,84.77492 86.6857591,84.7953752 C86.7154878,84.8052929 86.7458233,84.8158304 86.7749453,84.8257481 C86.8337961,84.8468231 86.8902201,84.8678982 86.9460373,84.8895931 C86.9751594,84.9019901 87.0036747,84.9131475 87.0315833,84.9249248 C87.0831536,84.9472395 87.1322971,84.9695543 87.1808338,84.9931087 C87.2081357,85.0067455 87.2354377,85.0203823 87.2615262,85.0340191 C87.3052092,85.0575736 87.3464655,85.0817479 87.387115,85.1065421 C87.4119901,85.1214186 87.4362584,85.136915 87.4593134,85.1524113 C87.4957159,85.1772055 87.529085,85.2032394 87.5612405,85.2292732 C87.5818687,85.2466292 87.6024968,85.2627454 87.6213048,85.2801013 C87.6310121,85.2893991 87.6431463,85.2974572 87.6522469,85.3061352 L87.6522469,85.3061352 L90.7901473,84.9032299 C90.9582058,84.8827747 91.1250508,84.932363 91.2542799,85.0420772 C91.383509,85.1517915 91.4623812,85.3117139 91.4714818,85.4827937 L91.4714818,85.4827937 L93.0713742,114.208704 L93.0859352,114.216143 C93.6428944,113.919852 94.2417164,113.721499 94.8514592,113.626041 L94.8514592,113.626041 Z M88.735223,6.57781316 C88.7910403,6.61190515 88.8462508,6.646617 88.9014613,6.68132884 C89.0276569,6.7606702 89.1204834,6.88526093 89.1635598,7.03030685 C89.5391128,8.30968624 89.3662006,9.540717 88.6781923,10.498392 C88.6132744,10.5882709 88.5435029,10.6719512 88.4737313,10.7531521 C88.5313687,10.8207163 88.5768719,10.8988179 88.6011402,10.9874571 C88.7212687,11.4194956 91.5455004,21.619199 91.5424668,25.803216 C91.5424668,26.0895887 91.3507467,26.3381503 91.0783342,26.4057144 C90.5256221,26.5414625 89.9595623,26.658615 89.3874355,26.760891 C92.7158426,30.0281433 95.4326867,35.2504163 96.9173043,41.6987612 C97.007704,42.0942282 97.0938567,42.4927946 97.1757625,42.8950801 C97.197604,43.0029347 97.2158053,43.112649 97.2364334,43.2205036 C97.4845775,43.2124455 97.7102734,43.1994286 97.8158408,43.1926102 C97.8259526,43.1917837 97.8355251,43.1910261 97.8439966,43.1903603 L97.8771184,43.1876513 C97.8922861,43.1864116 97.9547772,43.1839322 97.9699449,43.1839322 C98.0870398,43.1839322 98.199281,43.2056271 98.3072753,43.2384794 C98.3394309,43.2483971 98.3727999,43.2539757 98.4037421,43.2663728 L98.4037421,43.2663728 L98.4280104,43.2787699 C98.6870753,43.3866246 98.9042772,43.5824986 99.03836,43.836019 C99.1075248,43.9668083 99.1542414,44.1112343 99.1742628,44.2661979 C99.3004584,45.287098 100.370694,54.3549475 98.9867897,58.7143832 C98.9855763,58.7181023 98.9843628,58.7224413 98.9831494,58.7261604 C98.9012437,58.9815404 98.7447127,59.1947703 98.5420718,59.3447751 C98.502029,59.3745281 98.4534922,59.3900244 98.4110226,59.4141987 C98.2344702,59.5133754 98.0397165,59.5809396 97.8297951,59.5809396 L97.8297951,59.5809396 L97.600459,59.5809396 C97.2491743,61.9927929 96.7292245,64.2800555 96.0648778,66.4055361 L96.0648778,66.4055361 L96.0648778,113.536162 L105.224368,113.106603 C105.349957,112.867339 105.690927,112.060289 105.592034,110.445568 C105.556238,109.862285 105.514982,107.46097 105.451884,103.827383 C105.270478,93.2818012 104.893105,71.3383371 103.969086,57.9885337 C102.943748,43.1826925 97.4469615,25.249686 97.3911443,25.0699283 C95.2579545,18.2310751 90.7288697,8.92396191 89.2873284,6.61748384 C89.1113828,6.60260734 88.9311901,6.58835069 88.735223,6.57781316 Z M90.8083486,6.80467986 C92.63151,10.0762712 96.590288,18.418891 98.5481389,24.6949164 C98.6045628,24.8777734 104.143819,42.9471478 105.178865,57.9011343 C106.10531,71.28317 106.48329,93.2495688 106.665302,103.805689 C106.725367,107.292989 106.76905,109.812077 106.803025,110.368087 C106.878257,111.595398 106.730827,112.466294 106.554275,113.043378 L106.554275,113.043378 L110.233966,112.871059 C111.24171,112.7818 112.018298,111.917723 112.016481,110.861491 C112.004344,100.641952 111.843566,66.4545046 110.318906,55.5518862 C108.511519,42.6242037 104.526652,28.5125994 100.165019,19.6015731 C97.3614155,13.8728791 94.9861487,10.3105761 93.7096324,8.39646585 L93.7096324,8.39646585 L93.353494,7.86029183 C93.0034228,7.3296965 92.4428234,6.99435529 91.8148793,6.93980811 C91.544287,6.91563379 91.250033,6.87162413 90.9102758,6.81955636 C90.8781202,6.81459753 90.8417176,6.80963869 90.8083486,6.80467986 Z M82.883512,85.5032489 L82.5837976,85.5051084 C82.4697363,85.506968 82.3562816,85.5082077 82.2422203,85.5131665 C82.1433267,85.5168857 82.0450398,85.5230842 81.9461462,85.5299026 C81.8308714,85.536721 81.7162034,85.5447791 81.602142,85.5559365 C81.5044618,85.5646145 81.4086018,85.5763917 81.312135,85.5875491 C81.1986803,85.6018057 81.0852257,85.6173021 80.9735912,85.6352779 C80.880158,85.6501544 80.7879382,85.6662706 80.6957184,85.6842463 C80.5852973,85.7059413 80.4766963,85.7288759 80.3693088,85.7549097 C80.2807292,85.7759848 80.1927564,85.7989194 80.1066036,85.8230937 C80.0022496,85.8528467 79.9009292,85.8850792 79.8014289,85.919791 C79.7183097,85.9476845 79.636404,85.9774375 79.556925,86.0096699 C79.461065,86.0481009 79.3688452,86.0896311 79.2784455,86.1330209 C79.2032135,86.1695923 79.1298017,86.2061637 79.0588167,86.2458344 C78.9738774,86.294183 78.8931851,86.3468707 78.8143129,86.400798 C78.7487883,86.4448076 78.6844771,86.4888173 78.6238062,86.5377858 C78.5965042,86.5594807 78.5734493,86.5848947 78.5473608,86.6078293 C78.5849768,86.7367591 78.6225927,86.8656888 78.6614221,86.9927589 C78.707532,87.1464828 78.7530352,87.3008265 78.8003586,87.4514511 C78.8598161,87.6398869 78.9192736,87.8233637 78.9793378,88.0068406 C79.029088,88.1580851 79.0776247,88.3099494 79.1285883,88.4587145 C79.1880458,88.6341332 79.2493234,88.8058329 79.3093877,88.9775326 C79.3621714,89.1256778 79.4143484,89.2756825 79.4677388,89.4207284 C79.5284097,89.5849898 79.5896873,89.7449123 79.650965,89.9054545 C79.7061755,90.0505005 79.7601726,90.1955464 79.8159899,90.3368732 C79.8772675,90.4912169 79.9385452,90.6406018 80.0004295,90.7906066 C80.0574602,90.9300738 80.1144909,91.0714006 80.1721282,91.2077685 C80.2334059,91.3509549 80.2946835,91.4904221 80.3559612,91.6298894 C80.4154187,91.7650176 80.4742695,91.9020054 80.5343337,92.0340344 C80.5937912,92.1673031 80.6550688,92.2949931 80.7157398,92.4245427 C80.7764107,92.5547121 80.8376883,92.686741 80.8983593,92.8138112 C80.9590302,92.9377821 81.0190944,93.0561742 81.0791586,93.1770458 L81.1722127,93.3628472 L81.1722127,93.3628472 L81.2648117,93.5458592 C81.3260893,93.6630117 81.3855468,93.7739656 81.4462177,93.8873989 C81.5074954,94.0033117 81.568773,94.1198443 81.6300506,94.2314181 C81.6907216,94.3417522 81.7513925,94.4458877 81.8114567,94.5525027 C81.8727344,94.6597375 81.9334053,94.7688318 81.9940762,94.8717277 C82.0535337,94.9721441 82.1111711,95.0669818 82.1706286,95.1642989 C82.2319062,95.2653352 82.2925772,95.3688509 82.3538548,95.4649283 C82.4127056,95.5585263 82.4697363,95.6453059 82.5279804,95.7345649 C82.5880446,95.8269232 82.6468954,95.9217609 82.7063529,96.0097803 C82.7627769,96.0947003 82.8179874,96.1721821 82.8738047,96.2521433 C82.9332622,96.3383031 82.9939331,96.4275621 83.0521772,96.5093829 C83.1025341,96.5794264 83.1510708,96.6420317 83.200821,96.7095958 C83.263312,96.7932762 83.3258031,96.8800558 83.3870807,96.9587773 C83.4259101,97.0096053 83.4635261,97.0529952 83.5017488,97.1025835 C83.6789079,97.3238715 83.8512133,97.5296632 84.0150248,97.7081812 C84.5604565,97.2377118 85.1441108,95.9279595 85.6246245,94.22336 C85.650713,94.1310017 85.6768015,94.0429824 85.7016766,93.9487645 C85.711384,93.912813 85.7204846,93.8756217 85.7295852,93.84029 C86.333261,91.5021994 86.7324757,88.5504529 86.6554236,86.0821928 C86.5504629,86.0282655 86.3908983,85.9724786 86.2016051,85.9179314 C86.1676293,85.9080138 86.139114,85.8980961 86.1027114,85.8881784 C86.0268728,85.8677232 85.9382932,85.8478879 85.8521405,85.8280526 C85.8011769,85.8162753 85.7544603,85.8038782 85.6998565,85.7914812 C85.6143105,85.7735054 85.5196638,85.7573892 85.427444,85.7394134 C85.360706,85.7276362 85.2976082,85.7146192 85.22723,85.702842 C85.137437,85.6879655 85.0397568,85.6743287 84.9438967,85.6606919 C84.8632044,85.6489147 84.7831188,85.6358977 84.6975728,85.6253602 C84.6035328,85.6129631 84.5034258,85.6030454 84.4051389,85.5925079 C84.3117057,85.5825902 84.2194858,85.5714329 84.1236258,85.5627549 C84.0265523,85.5546968 83.9258386,85.5484982 83.8263382,85.54106 C83.7225909,85.5336217 83.6194504,85.5268033 83.513883,85.5212247 C83.415596,85.515646 83.315489,85.5131665 83.2159887,85.5100673 C83.1055676,85.506968 82.9951465,85.5038687 82.883512,85.5032489 L82.883512,85.5032489 Z M79.4307295,81.3229511 L75.9894745,81.3229511 L75.9797671,83.8823297 C75.9785537,84.2139518 75.7225224,84.4848282 75.3991464,84.4997047 L75.3991464,84.4997047 L74.521238,84.5381356 C74.5279118,84.8840144 74.5345856,85.2311328 74.5418661,85.5813505 L74.5418661,85.5813505 L76.7126719,85.7189582 L77.6197023,85.7766046 L77.6197023,85.7766046 L77.6482176,85.7549097 C77.8193097,85.5956072 78.0055694,85.4549002 78.2027499,85.3259705 C78.2312653,85.3079948 78.2591739,85.2893991 78.2876892,85.2714233 C78.4854765,85.149312 78.6935777,85.0420772 78.9095662,84.9466197 C78.9441487,84.9311233 78.9781244,84.9156269 79.0139202,84.9013703 C79.1504298,84.8437238 79.2887595,84.7916561 79.4307295,84.7433074 L79.4307295,84.7433074 L79.4307295,81.3229511 Z M81.055497,81.9304083 L80.6441481,81.9304083 L80.6441481,84.2610607 L81.1531771,84.2610607 L81.055497,81.9304083 Z M74.7760559,81.3229511 L74.4575336,81.3229511 C74.4708812,81.9706989 74.4836221,82.6302239 74.4969697,83.2984269 L74.4969697,83.2984269 L74.7687754,83.2860298 L74.7760559,81.3229511 Z M80.8213072,59.6001551 C79.9106365,66.9534873 77.5808729,73.4049315 74.3768412,77.4228274 C74.3956492,78.280086 74.4138505,79.1689572 74.4326585,80.0832424 L74.4326585,80.0832424 L81.9643475,80.0832424 C82.1657749,80.0832424 82.3672024,80.0739445 82.5674165,80.0578283 C82.6335478,80.0528695 82.6990724,80.042332 82.764597,80.0348937 C82.8986797,80.0206371 83.0333692,80.0057606 83.1662385,79.9846855 C83.2451107,79.9722884 83.3227695,79.9549325 83.4004283,79.9394361 C83.5205568,79.9165015 83.6406852,79.8941868 83.7596002,79.8650536 C83.8427194,79.8452183 83.9246251,79.821044 84.0065309,79.7987292 C84.1211989,79.7677365 84.2352603,79.7355041 84.3493216,79.6989327 C84.4330475,79.6716591 84.5161667,79.6419061 84.5998926,79.6127729 C84.7109204,79.5724824 84.8213414,79.5321918 84.9317625,79.4881822 C85.0160951,79.4540902 85.0992143,79.4175188 85.1829402,79.3815672 C85.2921478,79.3338384 85.4001421,79.2842501 85.5087431,79.2315625 C85.5918622,79.1918918 85.6743747,79.1503615 85.7562804,79.1063519 C85.8642747,79.050565 85.9722689,78.9929185 86.0790498,78.931553 C86.1597421,78.8856837 86.2410412,78.8391947 86.3217335,78.790846 C86.4297277,78.7251415 86.5359019,78.6575773 86.6432894,78.5869139 C86.7215549,78.5360859 86.7992137,78.4852578 86.8774792,78.4319503 C86.9854734,78.356948 87.092861,78.2788463 87.2002485,78.199505 C87.2748738,78.1443379 87.3501057,78.0897907 87.4241242,78.0321443 C87.5339386,77.9466044 87.6431463,77.8573454 87.7511406,77.7674665 C87.8215188,77.7092002 87.8918971,77.6527934 87.961062,77.5926675 C88.07573,77.4941107 88.1885779,77.3899752 88.3020326,77.2858396 C88.3633102,77.2281932 88.426408,77.1730261 88.4876856,77.1135201 C88.6157013,76.9914088 88.7425035,76.863099 88.868699,76.7335494 C88.9129888,76.6876802 88.9590987,76.6449102 89.0033885,76.5978013 C89.3455725,76.2370461 89.6810828,75.8508768 90.0074924,75.4411531 C90.0445016,75.394664 90.0802975,75.3463153 90.1167,75.2992064 C90.2410754,75.1399038 90.3648441,74.9793616 90.4867927,74.8132406 C90.5389697,74.7413375 90.5899333,74.6663351 90.6421103,74.5938122 C90.7464643,74.4481464 90.8508183,74.300621 90.9527454,74.1499964 C91.0091694,74.0656962 91.0655933,73.9776769 91.1220173,73.8915172 C91.2166639,73.7470911 91.3119173,73.6008055 91.4053505,73.4520404 C91.4635946,73.3590623 91.5200186,73.2642246 91.5770493,73.1693868 C91.6668422,73.0212416 91.7560285,72.8724766 91.8433946,72.7206123 C91.901032,72.6208157 91.957456,72.5191596 92.0144866,72.4181234 C92.0994259,72.266259 92.1837585,72.1125352 92.2668777,71.9563319 C92.3233017,71.8509566 92.3779055,71.7449615 92.4337228,71.6377267 C92.5150218,71.4815234 92.5951074,71.3222208 92.6745863,71.1610587 C92.7285835,71.0507246 92.7825806,70.9403906 92.8365777,70.8281969 C92.9136298,70.6651752 92.9900752,70.5009138 93.0653071,70.3347929 C93.1174841,70.2201198 93.1696611,70.1066864 93.2206247,69.9901538 C93.2952499,69.8209336 93.3686618,69.6492339 93.4408602,69.4762946 C93.4906103,69.3591421 93.5397538,69.2419896 93.5876838,69.1235974 C93.6604889,68.9469389 93.7302605,68.7665613 93.8000321,68.5861837 C93.8455353,68.4671717 93.8916452,68.3500192 93.9371484,68.2297674 C94.0075266,68.0419516 94.0748714,67.8497967 94.1434295,67.6582617 C94.184079,67.542349 94.2265487,67.4276759 94.2671982,67.3099036 C94.3393966,67.0985332 94.4091682,66.8834438 94.478333,66.6677345 C94.5110953,66.5666982 94.545071,66.4681414 94.5766199,66.3664852 C94.6700532,66.0689551 94.7598461,65.7683258 94.8472123,65.4645971 L94.8472123,65.4645971 L94.8672337,65.397033 C94.9600602,65.0703698 95.0498532,64.7393675 95.1353992,64.4046462 C95.1651279,64.2912128 95.1918231,64.1753001 95.2203385,64.0612469 C95.275549,63.8387192 95.3313663,63.6174312 95.3829366,63.392424 C95.4163056,63.2467583 95.4478545,63.0986131 95.48001,62.9523274 C95.5236931,62.753974 95.5673762,62.5568604 95.6086324,62.3572672 C95.6413947,62.1973448 95.6723369,62.034943 95.7032791,61.8744007 L95.7032791,61.8744007 L95.7815446,61.4652968 C95.1178046,62.7217416 94.24475,64.2856342 93.2430729,65.8730812 C93.2127375,65.9201901 93.1830087,65.967299 93.15328,66.0150278 C93.0859352,66.1204031 93.0191972,66.2251584 92.9512458,66.3305337 C92.8948218,66.4179332 92.8377911,66.5047128 92.7807605,66.5921122 L92.7807605,66.5921122 L92.6284764,66.8239378 C92.5338298,66.9671241 92.4379697,67.1103105 92.341503,67.2522571 C92.3233017,67.278291 92.3063138,67.3043249 92.2887192,67.3303588 C91.9070991,67.8900873 91.5133448,68.4392782 91.1092764,68.9686338 C91.1074563,68.9717331 91.1056362,68.9742125 91.1032093,68.9766919 C90.4267285,69.8630837 89.7235524,70.6881098 89.010669,71.3959835 C89.0021751,71.4052813 88.9924677,71.4139593 88.9839738,71.4226373 C88.8535313,71.551567 88.7224821,71.6761577 88.5914329,71.7964094 C88.5774786,71.8100462 88.5635243,71.8224433 88.54957,71.8354603 C88.4148805,71.9575716 88.280191,72.0765836 88.1461083,72.1887772 C88.1394345,72.1943559 88.1333674,72.1999346 88.1273003,72.2055133 C87.8457872,72.4404381 87.5636674,72.653668 87.2815476,72.8414839 C87.2536389,72.8606994 87.2257303,72.8774354 87.197215,72.8960311 C87.0916476,72.964215 86.9866869,73.0305395 86.8811194,73.0912852 C86.8374364,73.1160794 86.7931466,73.1402537 86.7500702,73.164428 C86.6584571,73.2146362 86.566844,73.2629848 86.4758376,73.3069945 C86.4285143,73.330549 86.3805843,73.3534836 86.3326543,73.3745586 C86.2416479,73.4167087 86.1506415,73.4526603 86.0596351,73.487992 L86.0596351,73.487992 L85.9273725,73.5394399 C85.8011769,73.5834495 85.6749814,73.6225004 85.5487859,73.6534931 C85.5433255,73.6553527 85.5372584,73.6578321 85.5311913,73.6590718 C85.5293712,73.6596916 85.5269443,73.6596916 85.5251242,73.6596916 C85.4456453,73.6789071 85.3655597,73.6869652 85.2860808,73.6888248 C85.2733399,73.6894446 85.2612057,73.6937836 85.2484648,73.6937836 L85.2484648,73.6937836 L85.1968945,73.6857255 C85.118629,73.6813865 85.0427903,73.6714689 84.9675584,73.6522534 C84.924482,73.6417159 84.8832258,73.6280791 84.8413629,73.6125827 C84.7800852,73.5896481 84.720021,73.5623745 84.6629903,73.5301421 C84.6284079,73.5103067 84.5938255,73.4917111 84.5616699,73.4681566 C84.4894715,73.4179484 84.4239469,73.360302 84.3638826,73.2952173 C84.3450747,73.2747621 84.3280868,73.2518275 84.3098855,73.2295127 C84.2467878,73.1501714 84.1885437,73.0652513 84.146074,72.9704136 L84.146074,72.9704136 L84.146074,72.9697937 C84.083583,72.8315662 84.0259456,72.7094549 83.9658814,72.5805252 C83.9033903,72.4435374 83.8378657,72.300351 83.7765881,72.1695618 C82.6863315,69.8438682 81.8927558,68.1504261 81.4692727,59.6038742 L81.4692727,59.6038742 L80.9384021,59.6007749 Z M69.2270929,24.8678557 L68.9916897,24.8678557 L68.9916897,26.4057144 C69.9951868,31.0118522 70.7535734,35.0198304 71.0921172,37.0734079 C71.0957574,37.0969624 71.0993977,37.1180374 71.103038,37.1409721 C71.1242728,37.2668025 71.1424741,37.383955 71.1594619,37.4880905 C71.393045,38.9776005 71.620561,40.5966601 71.8371562,42.2863831 C72.0537514,43.9761061 72.2606393,45.7346329 72.4547862,47.5055568 C72.4936156,47.8594936 72.5318383,48.2140503 72.570061,48.568607 C73.1367275,53.8850979 73.5881192,59.1922909 73.8574981,62.8866229 C73.9654923,64.3643557 74.0443645,65.5848489 74.0898677,66.443967 C74.0941147,66.5220687 74.097755,66.614427 74.1020019,66.7148434 C74.1032153,66.7359184 74.1044288,66.7600928 74.1056422,66.7824075 C74.1092824,66.8642283 74.1129227,66.9541072 74.1165629,67.0495647 C74.1177764,67.0817972 74.1189898,67.1140296 74.1202032,67.1475017 C74.1232367,67.2516373 74.1280904,67.3632111 74.1317307,67.4816032 C74.1329441,67.5088768 74.1341575,67.533671 74.1347642,67.5615644 C74.1402246,67.7097096 74.1450783,67.8683924 74.1499319,68.0376126 C74.1511454,68.0692252 74.1517521,68.103937 74.1529655,68.1361694 C74.1578192,68.2750168 74.1620661,68.4200627 74.1663131,68.5725469 C74.1687399,68.6376316 74.1705601,68.7045759 74.1723802,68.7709003 C74.1760204,68.9066484 74.1802674,69.0485951 74.1839077,69.1942608 C74.1863345,69.2556264 74.1875479,69.3145126 74.1893681,69.3783576 C74.1954351,69.5866286 74.2008955,69.802338 74.2069626,70.0298245 L74.2069626,70.0298245 L74.2087827,70.099868 C74.2154566,70.342851 74.2221304,70.5988508 74.2281974,70.8629088 L74.2281974,70.8629088 L74.2294109,70.9069184 C74.2609597,72.1708015 74.2967556,73.6733284 74.3343716,75.420078 C76.9535355,71.5218139 78.8513221,65.788781 79.6370107,59.3237 C79.5763397,59.2759712 79.5205225,59.221424 79.4701656,59.161918 C79.3633848,59.034228 79.2875461,58.8860828 79.2390094,58.7292597 C79.2353691,58.719342 79.229302,58.7094243 79.2274819,58.698267 C79.1795519,58.5302864 79.1674177,58.3505287 79.1935062,58.1720106 C80.0319784,52.5449727 78.9750908,44.9988658 78.8501087,44.146566 C78.8440416,44.1037961 78.8397947,44.0740431 78.8385813,44.0703239 C78.8149196,43.9178398 78.8246269,43.7653556 78.8555691,43.6172104 C78.8919717,43.444271 78.9629567,43.2818692 79.0685241,43.138063 C79.0842985,43.1157482 79.095826,43.0909541 79.1134206,43.069879 L79.1134206,43.069879 L79.114634,43.0692591 C79.1546768,43.0209105 79.1983599,42.976281 79.2456832,42.9366103 C77.6251627,33.6462332 73.8028942,26.8482904 69.2270929,24.8678557 L69.2270929,24.8678557 Z M84.9784791,30.344269 C84.9736255,30.3461286 84.9711986,30.3492278 84.9687718,30.3510874 C84.8971801,30.408114 84.8274085,30.4793973 84.757637,30.565557 C84.7546034,30.5692761 84.7515699,30.5736151 84.7485363,30.5773342 C84.2662025,31.1860312 83.8366523,32.4871055 83.486581,34.3051384 C82.7372951,38.3422498 82.5916848,43.8738301 82.5916848,43.8738301 L82.5916848,43.8738301 L80.0726279,43.8738301 C80.0611004,43.8769294 80.0519998,43.8856073 80.0398656,43.8880868 C80.0623139,44.0343724 80.1132774,44.38521 80.1775886,44.8879118 C80.1818356,44.9201443 80.1860826,44.9517568 80.1897228,44.985229 C80.1951832,45.0286188 80.2012503,45.0726284 80.2067107,45.117258 C80.2145979,45.1842022 80.2224851,45.2505266 80.2315858,45.32119 C80.2340126,45.3416452 80.2364394,45.3621004 80.2388663,45.3813159 C80.249787,45.4749139 80.2613145,45.5703715 80.272842,45.6707879 L80.272842,45.6707879 L80.2746621,45.6844247 C80.3929704,46.7121432 80.5313001,48.1055758 80.6241267,49.6806257 C80.6259468,49.7054199 80.6277669,49.7302141 80.6289803,49.7550083 C80.6374743,49.8975748 80.6447548,50.0426207 80.652642,50.1876666 C80.6544621,50.228577 80.656889,50.2694874 80.6587091,50.3103978 C80.6659896,50.4449062 80.67145,50.5806543 80.6775171,50.7170222 C80.6799439,50.7721893 80.6823707,50.8267365 80.6847976,50.8831432 C80.6896513,51.0114531 80.6945049,51.1403828 80.6987519,51.2705522 C80.7011787,51.3337773 80.7029989,51.3963826 80.704819,51.4602276 C80.709066,51.5872978 80.7127062,51.7143679 80.7157398,51.8426777 C80.7175599,51.9102419 80.71938,51.9790457 80.7199867,52.0472297 C80.7224136,52.1718204 80.7248404,52.2976508 80.7266605,52.4234813 C80.7272672,52.4966241 80.7284807,52.5679074 80.7290874,52.6404303 C80.7303008,52.765021 80.7309075,52.8902316 80.7315142,53.0160621 L80.7315142,53.0160621 L80.7315142,53.2354905 L80.7315142,53.2354905 L80.7296941,53.6142215 C80.7284807,53.6879842 80.7272672,53.7617468 80.7266605,53.8348897 C80.7248404,53.96134 80.7224136,54.0884101 80.7199867,54.2154802 C80.7181666,54.2880032 80.7163465,54.3605262 80.7145263,54.4342888 C80.7108861,54.5625987 80.7072458,54.6909085 80.7023922,54.8192184 C80.6993586,54.8898818 80.6963251,54.9599253 80.6938982,55.0305887 L80.6938982,55.0305887 L80.6756969,55.421097 C80.6720567,55.4886611 80.6684164,55.5556054 80.6647762,55.6231695 C80.6562822,55.7564382 80.6490017,55.8897069 80.6399011,56.0229755 C80.6362608,56.0824816 80.6314072,56.1413677 80.6265535,56.199634 C80.6168461,56.340341 80.6065321,56.4804281 80.5937912,56.6198953 L80.5937912,56.6198953 L80.581657,56.757503 C80.5677027,56.9093673 80.5537484,57.0612316 80.5379739,57.2118562 C80.5379739,57.216815 80.5367605,57.2217739 80.5367605,57.2261129 C80.5361538,57.2285923 80.5355471,57.2316915 80.5355471,57.234171 C80.4955043,57.6091829 80.4500011,57.9786161 80.3953973,58.3418507 C80.4087449,58.34495 80.4184522,58.3536279 80.4311931,58.3573471 C80.5385806,58.3585868 80.9608503,58.3610662 82.6280874,58.3728434 C82.641435,58.6883493 82.6553893,58.9939375 82.6693436,59.2920874 C82.6705571,59.3125426 82.6717705,59.3317581 82.6723772,59.3509736 C83.1310494,68.8335056 84.04172,69.755229 85.2484648,72.4534551 C85.2551386,72.4515955 85.2624191,72.4491161 85.2684862,72.4472565 C85.3843677,72.4181234 85.5020693,72.3790725 85.6203776,72.3350629 C85.6798351,72.3121283 85.7398993,72.2879539 85.8005702,72.2613002 C85.8521405,72.2389854 85.9049242,72.2141913 85.9577079,72.1893971 C87.6370792,71.3780077 89.5597409,69.1738056 91.3883627,66.4700009 C91.3944298,66.4607031 91.4004969,66.4514053 91.4071707,66.4427273 C91.4763355,66.3392117 91.5461071,66.2338364 91.6158787,66.129081 C94.0930726,62.3659452 95.9853989,58.3412309 95.9853989,58.3412309 L95.9853989,58.3412309 L97.8291884,58.3412309 C97.905027,58.1032068 97.9723718,57.8453474 98.0330427,57.5750909 C98.0385031,57.5496768 98.0451769,57.5255025 98.051244,57.4994686 C98.0664117,57.4275655 98.080366,57.3513234 98.094927,57.2775608 C98.1113082,57.1945003 98.1289028,57.1126795 98.1434638,57.0271396 C98.1501376,56.9905682 98.1562047,56.9515174 98.1622718,56.9143261 C98.1835066,56.787256 98.2047414,56.659566 98.2235494,56.5281569 L98.2235494,56.5281569 L98.2259762,56.5139002 C98.89639,51.8209828 97.9699449,44.4236409 97.9699449,44.4236409 C97.9699449,44.4236409 97.6574896,44.4478152 97.287397,44.4595925 C97.1994241,44.5928612 97.0610944,44.691418 96.8948561,44.7217909 C96.8578468,44.7279894 96.822051,44.7310887 96.7862551,44.7310887 C96.5696599,44.7310887 96.3706593,44.6120766 96.2638784,44.4248806 C96.2614516,44.4242608 96.2578113,44.4242608 96.2559912,44.4236409 C96.2511375,44.4031857 96.243857,44.3783916 96.2390034,44.3566967 C96.2195887,44.312687 96.1983538,44.2705369 96.1898599,44.2215684 C96.1795458,44.1639219 96.1674117,44.1075152 96.1570976,44.0504886 C96.1486037,44.0219753 96.1388963,43.9916024 96.1297957,43.9624693 C96.0782254,43.7938689 96.0181612,43.6141111 95.9465695,43.4213364 C95.9405024,43.4046004 95.9362554,43.3897239 95.9295816,43.3729878 C95.8549564,43.1746344 95.7669835,42.9589251 95.6723369,42.7363974 C95.6504954,42.6843296 95.6286538,42.6335015 95.6062056,42.5801941 C95.5151992,42.3731627 95.4163056,42.1580732 95.3137717,41.9405044 C95.2585612,41.8258313 95.2033506,41.7086788 95.1444998,41.5902866 C95.1008167,41.5010276 95.0534934,41.4092892 95.0073835,41.3181706 C94.8739075,41.0547325 94.7337576,40.7857157 94.5832937,40.5098805 C94.5790468,40.5018224 94.5747998,40.4937643 94.5711595,40.4869459 C94.3879333,40.1516047 94.1931797,39.8088252 93.9881119,39.4604671 C93.9711241,39.4325736 93.9553496,39.4053 93.9389685,39.3774066 C93.8000321,39.1443413 93.6568487,38.9094165 93.510025,38.6738719 C93.4068844,38.5096105 93.3043506,38.3453491 93.1981765,38.1804678 C93.1393257,38.0899691 93.0798681,37.9994703 93.0204106,37.9083518 C90.9242301,34.732218 88.1867578,31.6391448 85.7380792,30.6021284 L85.7380792,30.6021284 L85.6713411,30.5754747 C85.4377581,30.480637 85.2059951,30.4006758 84.9784791,30.344269 L84.9784791,30.344269 Z M97.003345,46.3104616 C97.2390425,46.3104616 97.4557322,46.4411968 97.5653442,46.6502468 C97.6743227,46.8586652 97.6578492,47.1100305 97.5235269,47.3032912 L97.5235269,47.3032912 L95.547976,50.1352554 C95.9693171,50.7150376 96.2322592,51.4179761 96.2892828,52.1739666 C96.3621463,53.1339544 96.1036393,54.0661532 95.5625487,54.7968808 C95.236247,55.2370858 94.8288451,55.5718184 94.3739235,55.7909735 C94.2592427,55.9248666 94.0951414,56.0069708 93.9183683,56.0151812 L93.9183683,56.0151812 L93.6858387,56.0246548 C93.5635548,56.0499176 93.4406372,56.0694963 93.3151853,56.0783383 C93.240421,56.0840225 93.1650232,56.0871803 93.0902589,56.0871803 C93.0078915,56.0871803 92.928692,56.0694963 92.8475918,56.062549 L92.8475918,56.062549 L90.9449044,56.1478111 C90.3962106,56.689699 89.7226986,57.0269579 89.006102,57.0806415 C88.9338721,57.0863256 88.8610086,57.0888519 88.7894123,57.0888519 C86.927275,57.0888519 85.3103392,55.2901377 85.1341996,52.9634303 C85.0670385,52.0767046 85.2279717,51.2095577 85.5713805,50.4554619 L85.5713805,50.4554619 L81.9826953,47.5344462 C81.7755096,47.3651852 81.6969438,47.0847676 81.7862807,46.8334024 C81.8768849,46.5814056 82.1157504,46.4140393 82.3837613,46.4140393 L82.3837613,46.4140393 L87.0704676,46.4140393 C87.2212633,46.4140393 87.3676239,46.4670912 87.4823047,46.5649847 L87.4823047,46.5649847 L89.9545945,48.6700108 C90.1066575,48.747694 90.2447813,48.8310614 90.372134,48.9188498 L90.372134,48.9188498 L92.0847428,46.5713004 C92.2044923,46.4077236 92.394571,46.3104616 92.5973215,46.3104616 L92.5973215,46.3104616 Z M89.9995798,51.0099812 L87.9302567,51.0099812 C87.9049129,51.0472439 87.8764011,51.0826119 87.8529581,51.1224009 C87.8225455,51.1748213 87.7927665,51.2285048 87.7655219,51.2834515 C87.723071,51.3718714 87.6863225,51.4640808 87.6533755,51.5588164 C87.6331004,51.616921 87.6121918,51.6750255 87.5950847,51.7350247 C87.5659393,51.8423918 87.5469314,51.9541799 87.530458,52.0672311 C87.5228548,52.120283 87.5108165,52.1714403 87.5057477,52.2257554 C87.4905414,52.395648 87.4861063,52.5705931 87.5000454,52.747433 C87.5494658,53.4004774 87.7870642,53.9935225 88.1697559,54.4160435 C88.5112639,54.7943545 88.9237346,54.9838258 89.3387396,54.9547736 L89.3387396,54.9547736 L90.6724583,54.8947743 C90.6350761,54.8505643 90.6059307,54.798144 90.571083,54.7520393 C90.5127922,54.6737245 90.4557686,54.5960412 90.4025466,54.513937 C90.3379198,54.4122541 90.2815298,54.3061502 90.2257734,54.19752 C90.1833225,54.1141526 90.1389708,54.0333115 90.1015887,53.9467863 C90.0470995,53.8192089 90.0059158,53.6846843 89.964732,53.5495281 C89.9419226,53.4750028 89.9134108,53.4036352 89.8944029,53.3272152 C89.8418145,53.1118495 89.8044324,52.8907996 89.7866917,52.6621709 C89.7702182,52.4455421 89.7765542,52.2320711 89.7930277,52.0204948 C89.7961956,51.981969 89.7974628,51.94218 89.801898,51.9042858 C89.8234402,51.702183 89.8608224,51.5038698 89.91151,51.310609 C89.921014,51.2739779 89.9324187,51.2379784 89.9431898,51.2026104 C89.9621977,51.1381902 89.977404,51.0725068 89.9995798,51.0099812 L89.9995798,51.0099812 Z M93.0116138,50.0188096 L92.8513934,50.0190464 C92.7303766,50.0272568 92.6106271,50.0512565 92.4953127,50.0866245 C92.4205484,50.1106242 92.3546545,50.1428343 92.2887605,50.1750444 C92.2558135,50.1895706 92.222233,50.2009388 92.1905532,50.2179912 C92.1132546,50.2603065 92.0441926,50.3083059 91.9795659,50.3556737 C91.9630924,50.367042 91.9472525,50.3790418 91.930779,50.3910417 C91.8655187,50.4434621 91.8046935,50.4958825 91.7546395,50.5464082 C91.7527387,50.5476713 91.7495707,50.5483029 91.7476699,50.5508292 C91.6735392,50.6253545 91.5994086,50.7005115 91.5335146,50.7882998 C91.4435441,50.9108246 91.3649782,51.0415598 91.2984507,51.1792423 C91.1007689,51.5935528 91.0126991,52.0722836 91.0500812,52.5668037 C91.0621195,52.7183807 91.0874634,52.8655368 91.1210439,53.0101665 C91.1425862,53.099218 91.1729988,53.1844801 91.2034113,53.2703738 C91.2192512,53.3177416 91.2331903,53.365741 91.2515646,53.4124772 C91.2921147,53.5122655 91.340268,53.6070011 91.3922228,53.6992105 C91.4067955,53.726368 91.4207346,53.7535256 91.4365745,53.7800515 C91.4935981,53.8728925 91.5556905,53.961944 91.6228516,54.0453114 C91.6393251,54.0661532 91.6570658,54.086995 91.6748064,54.1072053 C91.7476699,54.193099 91.8256022,54.2745716 91.9086032,54.3465707 L91.9086032,54.3465707 L91.9250767,54.3604653 C92.2101947,54.602357 92.5447331,54.7615128 92.9033482,54.8038281 L92.9033482,54.8038281 L92.9160201,54.8082491 C93.0161282,54.8177227 93.1175035,54.8271962 93.2195124,54.8189858 C93.273368,54.8151964 93.3246892,54.798144 93.3772777,54.7880388 L93.3772777,54.7880388 L93.4000871,54.7798284 C93.4887905,54.762776 93.5768603,54.7463551 93.6604949,54.7154082 L93.6604949,54.7154082 C94.0020029,54.5916202 94.3048615,54.3674126 94.5424599,54.0465745 C94.9036093,53.5590017 95.0759473,52.9274307 95.0258933,52.2687022 C94.9764728,51.6093421 94.7116299,51.0106128 94.2807849,50.5824077 C94.2725482,50.5741973 94.2636778,50.5691447 94.2554411,50.5609343 C94.2522731,50.558408 94.2472044,50.5571449 94.2440364,50.553987 C94.1451955,50.4598829 94.0406522,50.3771471 93.932941,50.3070428 C93.9247042,50.3013586 93.9158339,50.2975692 93.9069635,50.2918851 C93.810657,50.2312542 93.7118161,50.1807286 93.6104408,50.1396764 C93.5774939,50.1264135 93.5432797,50.118203 93.5103327,50.1068348 C93.4311333,50.0809403 93.3506667,50.0569406 93.2689328,50.0430461 C93.2220468,50.0342041 93.1738935,50.0316778 93.1263738,50.0272568 C93.0497088,50.0203095 92.9736773,50.0146254 92.8963786,50.0184148 Z M82.3409785,50.3542353 C82.7042582,50.3153462 83.0306835,50.8853334 83.069968,51.6282903 C83.1088474,52.3718276 82.8460062,53.0050823 82.4823214,53.0451323 C82.1186367,53.083441 81.7926164,52.5134538 81.7537369,51.7704969 C81.7144525,51.02754 81.9776987,50.3931245 82.3409785,50.3542353 Z M86.8366708,47.6771812 L84.1609968,47.6771812 L86.7042494,49.7468393 L89.2677769,49.7468393 L86.8366708,47.6771812 Z M95.7912767,47.5736036 L92.9198217,47.5736036 L92.0188488,48.809588 L92.9261576,48.7445362 C92.9407303,48.743273 92.9527687,48.7489572 92.9667078,48.7489572 C92.9717765,48.7489572 92.9762117,48.7483256 92.9806469,48.7483256 C92.9952196,48.7483256 93.0091587,48.7514834 93.0237314,48.7514834 C93.2961774,48.7552729 93.5635548,48.796325 93.8226953,48.8733766 L93.8226953,48.8733766 L93.8455048,48.8809555 C94.1173173,48.9636913 94.3796258,49.0830582 94.6267281,49.2434772 L94.6267281,49.2434772 L95.7912767,47.5736036 Z M87.7619478,37.1564821 C88.3132285,36.960872 88.8947317,36.949514 89.4784737,37.1388141 C90.5390594,37.4795543 91.5218503,38.4456158 92.0440279,39.6590294 C92.8790643,41.6018795 92.497925,43.9359497 91.2296995,44.6546591 C90.7220735,44.9417643 90.1523234,45.0868944 89.5730589,45.0868944 C89.1460262,45.0868944 88.7133967,45.0080193 88.2964382,44.8490072 C88.2124868,44.8168262 88.139729,44.7682392 88.0596953,44.7310102 C87.5822918,44.5890351 87.1362301,44.2552359 86.7646054,43.7447566 C86.6106945,43.5327405 86.481969,43.2910674 86.3655565,43.0367743 C86.3543629,43.0115342 86.3364533,42.9900802 86.3252598,42.9642092 C86.278247,42.8550462 86.2362713,42.7433591 86.197094,42.629779 C86.1758263,42.571096 86.1584764,42.51052 86.1400071,42.4512059 C86.0885169,42.2871459 86.0448622,42.1199308 86.0090429,41.9508227 L86.0090429,41.9508227 L85.9866559,41.8511246 C85.6469326,40.1247077 86.0549363,38.2335997 87.0343691,37.5363443 C87.2386508,37.3905832 87.4502083,37.2776342 87.6668029,37.1911871 C87.697585,37.1779361 87.7306059,37.1678401 87.7619478,37.1564821 Z M90.9660921,40.0660247 C91.0024711,40.2748858 91.0315742,40.4887949 91.0466855,40.710907 C91.1132869,41.7053635 90.9302729,42.6689011 90.5317837,43.4248395 C90.4864499,43.5100245 90.4377581,43.5901616 90.387947,43.6684056 C90.5037999,43.6267596 90.6202124,43.5876376 90.7265509,43.5270615 C91.3589846,43.1686533 91.6382629,41.6094515 91.0366113,40.2098927 L91.0366113,40.2098927 C91.0153436,40.1613057 90.9890388,40.1146117 90.9660921,40.0660247 Z M88.36248,38.3124747 C88.3406526,38.3124747 88.3182656,38.3131057 88.2964382,38.3149987 C88.2029723,38.3232017 88.1128645,38.3503347 88.0255551,38.3894568 C88.01716,38.3926118 88.0093245,38.3970288 88.0003697,38.4001838 C87.390323,38.6992779 86.9705661,39.7341185 87.0108627,40.9065171 C87.0153401,41.0081082 87.0203772,41.1078062 87.0321304,41.2087663 C87.0371675,41.2642943 87.045003,41.3185603 87.0528384,41.3728264 C87.0735464,41.5154324 87.1004109,41.6574075 87.1339914,41.7974896 C87.1446253,41.8403976 87.1546994,41.8826746 87.1664526,41.9249517 C87.2022719,42.0555687 87.247046,42.1817688 87.2957378,42.3054449 C87.3170054,42.3571869 87.3360344,42.4101909 87.3584215,42.458778 C87.5643822,42.9080502 87.9164183,43.2696134 88.3663977,43.5106555 C88.4553862,43.5358955 88.5477327,43.5510395 88.645676,43.5434675 C89.1202811,43.5037145 89.4281028,43.0475013 89.5697008,42.7793261 C89.8473001,42.2524408 89.9788239,41.5337315 89.9301321,40.8055571 C89.8383452,39.4287143 89.1286762,38.3124747 88.36248,38.3124747 Z M81.9643475,24.8678557 L71.6587837,24.8678557 C75.7055345,27.8605126 78.9526426,34.3007994 80.4226992,42.6341214 L80.4226992,42.6341214 L81.4189158,42.6341214 C81.5238765,39.9898227 81.796289,36.0438298 82.5031053,33.0827856 C82.5158462,33.0282384 82.5310139,32.9780302 82.5437548,32.9247227 C82.5995721,32.6972362 82.6572094,32.4728489 82.7184871,32.2589991 C82.745789,32.1635416 82.7767312,32.0767619 82.8052465,31.9844036 C82.8568168,31.8189025 82.906567,31.6515419 82.9617775,31.4965783 C83.0036404,31.3781861 83.0491436,31.2728108 83.0940401,31.1612371 C83.14015,31.0434647 83.1844398,30.9213534 83.2329766,30.8110193 C83.2900072,30.6839492 83.3518916,30.5729953 83.4125625,30.4577024 C83.453212,30.378361 83.4920414,30.2903417 83.5351178,30.2171989 C83.6115631,30.0870294 83.6934689,29.9773152 83.7747679,29.8669812 C83.8063168,29.8235913 83.8354389,29.7702839 83.8688079,29.7299933 C83.9852961,29.586807 84.1072446,29.4622163 84.2352603,29.3617998 C84.3274801,29.2892769 84.4324408,29.2372091 84.540435,29.195059 C84.5756242,29.1814222 84.6108133,29.1708847 84.6460025,29.1597273 C84.7394357,29.1330736 84.8340823,29.1163375 84.9299424,29.1119985 C84.9457168,29.1113787 84.9608846,29.1039404 84.976659,29.1039404 C84.980906,29.1039404 84.985153,29.1058 84.9900066,29.1058 C85.0816197,29.1064199 85.1726261,29.1169574 85.2612057,29.1386523 C85.2715197,29.1411317 85.2824405,29.1454707 85.2933613,29.1485699 C85.4577795,29.1901002 85.6228044,29.2409282 85.788436,29.2985747 C85.8563875,29.3221292 85.9249456,29.3494028 85.9922904,29.3754366 C86.101498,29.4175867 86.210099,29.4622163 86.3193067,29.5105649 C86.4006057,29.5458966 86.4819047,29.5837077 86.5625971,29.6227585 C86.6554236,29.6680079 86.7476434,29.7163565 86.8398632,29.765325 C86.932083,29.8142935 87.0243028,29.8614025 87.1159159,29.9140901 C87.1316904,29.9240078 87.1474648,29.9339254 87.1632393,29.9432232 C87.4441457,30.1068648 87.7244453,30.2903417 88.004745,30.4905546 C88.0259799,30.5048113 88.0472147,30.5190679 88.0684495,30.5339444 C88.2152731,30.6405594 88.3620968,30.7521332 88.5089204,30.8668062 C88.516201,30.8717651 88.5234815,30.8773438 88.5301553,30.8823026 C90.5292623,32.4536334 92.4640582,34.8096998 94.031795,37.1992384 C94.0439292,37.217834 94.0572768,37.2370495 94.0688043,37.2568848 C94.1197678,37.3337468 94.1719448,37.4106087 94.221695,37.4880905 C94.2077407,37.4465603 94.1931797,37.40503 94.1786186,37.3641196 C94.027548,36.9333208 93.8722305,36.5093405 93.7102391,36.0971373 C93.7017452,36.0760623 93.6932512,36.0574666 93.6859707,36.0376313 C93.5270129,35.6365855 93.3613812,35.247317 93.1915026,34.864247 L93.1915026,34.864247 L93.1041365,34.6658936 C92.9324378,34.2871626 92.7558854,33.9177294 92.575086,33.557594 C92.5392902,33.4863108 92.5022809,33.4156474 92.4664851,33.344984 C92.2784052,32.9798897 92.0878985,32.6222338 91.890718,32.2775948 C91.8804039,32.259619 91.8688764,32.2428829 91.8591691,32.225527 C91.6668422,31.8920453 91.4702684,31.5715806 91.2694477,31.2585542 C91.2324384,31.199668 91.1948224,31.1407819 91.1578131,31.0825155 C90.9551722,30.7732082 90.7482844,30.4738186 90.5377563,30.1849664 C90.4946799,30.1260803 90.4509968,30.0671941 90.4067071,30.0083079 C90.1888984,29.7163565 89.968663,29.4318434 89.7429671,29.1615869 C89.7314396,29.1491898 89.7199122,29.1367927 89.7095981,29.1237758 C89.4899693,28.8628171 89.2648802,28.6148753 89.0385776,28.3768513 C88.9942879,28.3297423 88.9506048,28.2820136 88.906315,28.2361443 C88.678799,28.0018394 88.4470361,27.7793117 88.2128463,27.5679413 C88.1643096,27.5239317 88.1157728,27.4817816 88.0672361,27.4396315 C87.8239457,27.2257817 87.5788351,27.0206099 87.3300843,26.8321742 C87.320377,26.8253558 87.3106696,26.8191573 87.3009623,26.811719 C87.0576718,26.6282421 86.8101345,26.4615013 86.5607769,26.3028186 L86.5607769,26.3028186 L86.4151667,26.2092206 C86.1670226,26.0567364 85.9164517,25.917889 85.6640606,25.790199 L85.6640606,25.790199 L85.5093498,25.7158165 C85.2466446,25.5887464 84.9827261,25.4715939 84.7151673,25.373037 C84.7103136,25.3711775 84.70546,25.3699378 84.6999996,25.3680782 C84.4354743,25.2707611 84.1685223,25.1914197 83.9009635,25.1226159 C83.8499999,25.1089791 83.7990363,25.0953423 83.7480727,25.0829452 C83.5011421,25.024059 83.2536047,24.9806692 83.0048539,24.9453375 C82.9557104,24.9397588 82.906567,24.9317007 82.8574235,24.9261221 C82.8380088,24.9236426 82.8179874,24.9211632 82.7985727,24.9193037 C82.5219133,24.8889308 82.2440404,24.8678557 81.9643475,24.8678557 L81.9643475,24.8678557 Z M87.3913619,11.5911952 C87.3713405,11.600493 87.3488923,11.6066916 87.3288709,11.6153695 C87.2512121,11.6488417 87.1747667,11.6779748 87.1013549,11.7009094 C87.0673792,11.7120668 87.0352236,11.7188852 87.0000345,11.7275632 C86.8884,11.7560765 86.7816191,11.775292 86.6863658,11.7765317 L86.6863658,11.7765317 C86.5765514,11.7858295 86.3915051,11.766614 86.0541747,11.7151661 L86.0541747,11.7151661 L85.4207702,23.6585199 C85.4153098,23.7539775 85.3855811,23.8401372 85.3431114,23.9188587 C86.3241603,24.3583355 87.2779073,24.9552552 88.1940383,25.6947415 C88.9123821,25.5937052 89.6240521,25.4684946 90.3175208,25.3122913 C90.1361147,21.4456398 87.9744096,13.3143903 87.5181642,11.6333453 C87.4787281,11.6197085 87.4362584,11.6060717 87.3913619,11.5911952 Z M64.658572,9.69754015 C65.954503,13.6596492 67.2164583,18.5874914 68.2854801,23.2444572 C68.6901552,23.3411545 69.09119,23.4676047 69.4861577,23.628147 L69.4861577,23.628147 L80.4597084,23.628147 C82.537081,14.792743 83.2833334,12.1639406 83.5824411,11.3004835 C81.2781593,10.9074959 78.0947557,10.3781402 76.1751275,10.3012783 C74.8828368,10.2498304 72.9947575,10.1432154 70.9950437,10.0310218 C68.9698481,9.9169686 66.7201701,9.79175802 64.658572,9.69754015 Z M84.8031402,11.5093744 C84.6520696,11.8577326 84.0550676,13.6881625 81.8472526,23.0392854 C82.645682,23.0845348 83.4368309,23.2370189 84.2146322,23.4855805 L84.2146322,23.4855805 L84.8498568,11.5168127 C84.8334756,11.5143333 84.8195213,11.5118539 84.8031402,11.5093744 Z M72.2691332,3.7537567 C69.3441878,3.64962117 66.1237749,3.92979534 62.5520774,4.31286533 C62.5684585,4.34261834 62.5836263,4.37237135 62.5981873,4.40212436 C62.6248825,4.45605169 62.6527911,4.51927684 62.6794863,4.57506373 C62.7747397,4.77217741 62.8712065,4.97363008 62.9670665,5.18747984 C63.0156033,5.2965742 63.0653534,5.41682595 63.1144969,5.5302593 C63.1897288,5.70443837 63.2655675,5.8792373 63.3407994,6.06271419 C63.4032905,6.21581822 63.466995,6.37698035 63.5300927,6.53752263 C63.5889435,6.68628768 63.6477943,6.83567258 63.7066451,6.99063617 C63.7843039,7.19456825 63.8631761,7.40531873 63.9420483,7.62102805 C63.9790576,7.72206431 64.0160669,7.82434028 64.0530761,7.92785596 C64.1143538,8.09831591 64.1750247,8.25885819 64.236909,8.43613653 C66.4259161,8.53283381 68.8806619,8.67106133 71.0623884,8.7937925 C73.0566418,8.90536628 74.9398674,9.01136138 76.2224508,9.06280929 C78.3501803,9.14834919 81.9030698,9.75580646 84.2540683,10.1580919 C84.4579226,10.1928038 84.6605635,10.2275156 84.8607775,10.2616076 L84.8607775,10.2616076 C85.3867945,10.3502468 86.4788712,10.5362031 86.6724115,10.536823 C86.6821188,10.5362031 86.6985,10.532484 86.7136677,10.5293847 C86.7719118,10.5138883 86.8811194,10.4754574 87.026123,10.3892976 C87.026123,10.3892976 87.0267297,10.3892976 87.0267297,10.3886778 L87.1145319,10.3343533 C87.2044576,10.2752832 87.3003556,10.2014817 87.3986425,10.1085036 C87.5078501,10.0062276 87.6188779,9.8816369 87.7220185,9.73287185 C88.0114188,9.31694958 88.2923252,8.61899357 88.0593489,7.60925082 C87.5703412,7.31048102 87.0400773,7.02348845 86.4448955,6.73587602 C86.4412552,6.73401646 86.437615,6.73153704 86.4339747,6.72905763 C82.8185941,4.98478746 77.9776608,3.96140791 72.2691332,3.7537567 Z"
                    id="Combined-Shape">
                </path>
            </g>
            <g id="Group" transform="translate(81.000000, 209.000000)">
            </g>
        </g>
    </g>
</svg>