<svg fill="#005072" height="148" version="1.1" viewBox="0 0 148 148" width="148"
    xmlns="http://www.w3.org/2000/svg">
    <g fill-rule="evenodd" id="Page-1" stroke="none" stroke-width="1">
        <g id="Machine-Linework-148px" transform="translate(-482.000000, -965.000000)">
            <g id="Group-3" transform="translate(81.000000, 208.000000)">
                <g id="Machine-Linework-/-Global-9.x.8-Advantage-EVO" transform="translate(401.000000, 757.000000)">
                    <g id="Combined-Shape" transform="translate(11.374938, 0.375000)">
                        <path
                            d="M29.1659656,0 C30.0419656,0 30.9910923,0.349237783 32.3494461,1.03300168 C33.6447778,1.68504174 34.5231302,2.44114202 34.6252974,3.46151976 L34.6211604,3.42822106 C34.6264974,3.46299298 34.6289611,3.4986896 34.6283054,3.53505574 L34.623,3.45 L34.6252974,3.46151976 C34.6263059,3.47159192 34.6270693,3.48163213 34.6275926,3.49163447 L34.6283054,3.53505574 L34.108998,32.6475332 L33.915,44.51 L64.6392056,42.7264764 L64.8197058,42.7423067 L71.0229972,44.2140553 C71.1918278,44.2541108 71.3347959,44.3620395 71.4200352,44.5097427 L71.4639964,44.6029128 L73.2047893,49.2479266 C73.8829985,49.5530461 74.4035878,50.1627733 74.8145248,51.1036228 C75.1386118,51.8456275 75.2319534,52.6308939 75.0903437,53.2392903 C75.051298,53.4070419 74.9871149,53.5564771 74.9004659,53.6870403 L75.661104,55.8369009 L75.6969343,56.0488545 L75.6947213,56.4614896 C75.6929414,56.7933616 75.4320879,57.0659733 75.1006166,57.082374 L75.1006166,57.082374 L71.696,57.251 L71.1454945,96.7065423 L71.3624323,96.8559012 L71.4666082,96.9321036 L71.6954733,97.0956963 L71.9017219,97.2491957 L72.030052,97.3385533 L72.3729859,97.5915823 L72.8169411,97.9299826 L73.0426297,98.1044453 L73.3823741,98.3739988 L73.4759985,98.4511775 L73.7185627,98.6412157 L74.2756988,99.1035024 L74.3688447,99.1850153 L74.5974634,99.3750518 L75.1503937,99.8546368 L75.4847157,100.150986 L75.8121776,100.450701 L75.8967105,100.531483 L76.033345,100.650121 L76.3570199,100.955867 L76.4464689,101.044194 L76.5636896,101.150969 L77.0039419,101.574859 L77.4216612,101.988332 L77.5281569,102.090825 C77.6157342,102.175111 77.6760631,102.282305 77.7033117,102.398701 L77.7033117,102.398701 L77.806064,102.743723 L77.8320065,102.930535 L77.794,105.733 L124.749036,114.551763 C124.757352,114.553324 124.765599,114.555044 124.773774,114.556919 C124.79118,114.560782 124.807897,114.56539 124.82432,114.57066 C124.835142,114.574184 124.846222,114.578058 124.857137,114.582221 C124.875504,114.589281 124.893156,114.59704 124.91036,114.605568 C124.920583,114.610456 124.930989,114.615952 124.9412,114.62172 C124.954895,114.629723 124.968148,114.637921 124.981061,114.646588 C124.995649,114.656022 125.009822,114.666403 125.023498,114.677332 C125.031436,114.684081 125.039353,114.690741 125.0471,114.697591 C125.061218,114.709666 125.074295,114.722306 125.086785,114.735472 C125.095738,114.745331 125.104707,114.755399 125.113348,114.76575 C125.122716,114.776562 125.131472,114.787827 125.139833,114.799373 C125.149284,114.812829 125.158286,114.82632 125.166765,114.840166 C125.173508,114.850767 125.179953,114.862058 125.186045,114.873545 C125.19329,114.887628 125.200248,114.902047 125.206656,114.91676 C125.213107,114.931043 125.218733,114.945375 125.223829,114.959925 C125.227963,114.972502 125.232009,114.985409 125.235641,114.998489 C125.250675,115.051226 125.258579,115.106536 125.258785,115.163054 C125.25835,115.167756 125.258319,115.172474 125.258235,115.177203 L125.087592,124.644544 C125.081735,124.969735 124.827453,125.236081 124.502882,125.256994 L116.970466,125.742341 C116.632496,125.764118 116.29425,125.778899 115.955861,125.78668 L115.705554,143.353223 C115.700898,143.681688 115.442761,143.950488 115.114754,143.96843 L115.114754,143.96843 L65.0916854,146.704686 C60.9428794,146.931625 56.7819142,146.646943 52.7026761,145.857064 L52.7026761,145.857064 L5.09768501,136.639118 C4.80044708,136.581562 4.58720328,136.31924 4.59143478,136.016513 L4.59143478,136.016513 L4.86019788,117.312678 C4.85366911,117.251387 4.85563063,117.189152 4.86591905,117.128359 L0.508284336,116.299397 C0.210164227,116.242696 -0.00414759375,115.980041 6.09098026e-05,115.676606 L6.09098026e-05,115.676606 L0.14721937,105.231109 L0.154835651,105.129469 C0.199968176,104.842576 0.440567338,104.618866 0.739298152,104.603109 L0.739298152,104.603109 L7.403,104.251 L7.823,59.056 L5.74366642,58.7353014 C5.4692885,58.6929314 5.26015506,58.4762956 5.22075315,58.2093463 L5.21413768,58.1071239 L5.40893879,46.5119732 L5.412,46.469 L5.41333385,46.4469423 C5.4138696,46.442496 5.41445234,46.4380632 5.41508156,46.4336446 L5.40893879,46.5119732 C5.40979535,46.4609882 5.41673375,46.4115318 5.42905104,46.3642836 C5.430957,46.3568874 5.4331006,46.3492681 5.43538415,46.3417073 C5.4404961,46.3247907 5.44627573,46.3082265 5.45271424,46.2919994 C5.46056764,46.2722565 5.4694544,46.2528633 5.47927656,46.2340222 C5.50441559,46.1857194 5.53565029,46.1412095 5.57194277,46.1014219 C5.57968702,46.0929531 5.58747657,46.0848609 5.5954793,46.0769811 C5.60969275,46.0629837 5.62469461,46.0495666 5.64031746,46.0368897 C5.65175951,46.0275842 5.66357877,46.0186621 5.67571875,46.0101586 C5.68751981,46.0019124 5.69966312,45.9940157 5.71208578,45.9865393 C5.72625832,45.9779962 5.74082944,45.9700003 5.75574644,45.9625806 C5.7702072,45.9553901 5.78461765,45.9488935 5.7993029,45.9429395 C5.81085461,45.9382767 5.82323112,45.9337026 5.83579064,45.9295143 C5.85496973,45.9230582 5.87434498,45.9176105 5.89407022,45.9130977 C5.90095205,45.9116207 5.9078346,45.9101722 5.91475969,45.9088372 L5.93037938,45.9059217 C5.9490778,45.9028012 5.96805192,45.9005126 5.98726159,45.8990946 L6.00673667,45.8980602 L16.881,45.425 L17.0758318,44.9151461 C17.1834164,44.6321537 17.4752192,44.471486 17.764726,44.5209888 L17.8608874,44.5453943 L18.7571998,44.8495649 L19.7815941,42.0879052 C19.9084158,41.7460072 20.2998004,41.5848444 20.630599,41.7383054 L20.630599,41.7383054 L20.773,41.804 L21.3441308,1.02042834 C21.3482138,0.728563038 21.552613,0.48315353 21.8292702,0.419936855 L21.9239899,0.405798709 C24.3871452,0.227673204 26.2720101,0.108220311 27.5842793,0.0473779828 L27.5842793,0.0473779828 L28.5937113,0.00890235157 Z M111.229,115.658 L62.767,117.504 L62.632,127.233 L62.6429661,127.318688 C62.6580238,127.632124 62.4394983,127.902707 62.1406033,127.961758 L62.048677,127.972959 C59.7770745,128.082088 57.5005702,127.919326 55.2675987,127.488135 L55.2675987,127.488135 L6.1,117.993 L5.84897061,135.511374 L52.9403048,144.629859 C56.9188209,145.400235 60.9770463,145.677887 65.0234126,145.456552 L65.0234126,145.456552 L114.463951,142.75216 L114.704242,125.783543 C113.88573,125.760624 113.067327,125.696761 112.250893,125.591898 L111.599749,125.499187 C111.287447,125.45472 111.057234,125.184499 111.062848,124.869098 L111.229,115.658 Z M75.99089,127.406588 L75.99089,127.748542 L75.9483181,127.747595 L75.99089,127.406588 Z M75.99089,126.498542 L76.0721876,126.503356 L76.1031681,126.507224 L75.99089,127.406588 L75.99089,126.498542 Z M1.386,105.984 L1.25738616,115.169463 L61.39,126.606 L61.518,117.419 L1.386,105.984 Z M112.479374,115.700564 L112.322757,124.339574 L112.418591,124.353228 C113.900987,124.543571 115.398369,124.591046 116.89009,124.494928 L123.848161,124.046589 L123.996534,115.809804 L117.182778,116.008763 C115.833148,116.048172 114.483329,115.977909 113.146591,115.799043 L112.479374,115.700564 Z M47.5647467,103.364618 L17.266,104.983 L17.2456846,107.224809 C17.2439986,107.408971 17.1625712,107.574687 17.0336574,107.688252 L62.195,116.275 L106.562625,114.585479 L50.7134901,103.964223 C50.7016255,103.962501 50.6898707,103.960446 50.6782353,103.958068 L47.5647467,103.364618 Z M77.0237779,106.859631 L73.713,107.065 L111.983599,114.343698 C111.984274,114.343826 111.98495,114.343954 111.985625,114.344084 C113.685516,114.670583 115.416069,114.809818 117.146294,114.759296 L118.821,114.71 L77.0607239,106.867714 C77.048249,106.865371 77.0359309,106.862673 77.0237779,106.859631 Z M14.263,60.05 L13.8340617,106.741 L16.0011127,106.626161 L16.426,60.136 L15.254398,60.1913242 C15.2530499,60.1913877 15.2517025,60.1914468 15.2503559,60.1915017 L15.2405116,60.1922243 L15.2405116,60.1922243 L15.230032,60.1921018 C15.2273297,60.1921204 15.2246245,60.1921214 15.2219163,60.1921049 L15.191,60.189 L15.1657385,60.1892811 C15.1640912,60.1891264 15.1624457,60.1889652 15.1608019,60.1887976 C15.1578381,60.1888775 15.1505528,60.1880468 15.1432925,60.1870892 L15.127,60.184 L14.263,60.05 Z M9.071,59.249 L8.63794324,105.896277 L12.5850617,106.647 L13.015,59.858 L9.071,59.249 Z M76.577,103.198 L69.371,103.582 L69.336,106.087 L76.5454418,105.635591 L76.577,103.198 Z M61.985,57.771 L59.816,57.889 L59.814422,57.8936946 L59.4072407,58.7675831 L59.2418756,59.1534691 L59.1370689,59.4279975 L58.946649,59.9683955 C58.8340969,60.3057606 58.7131324,60.7076542 58.5838304,61.1742089 L58.5838304,61.1742089 L58.424671,61.7651203 L57.9201728,63.729246 L57.5908674,65.0503653 L57.5102977,65.391773 L57.3530418,66.0459538 L57.2771892,66.3924446 L57.1199461,67.0606949 L56.9685971,67.7301181 L56.8956677,68.0744747 L56.8217344,68.4074921 L56.7485101,68.7571173 L56.6738746,69.0934444 L56.6024823,69.4251136 L56.5332279,69.776645 L56.4624077,70.1149393 L56.2560148,71.1475082 L55.9906735,72.5241069 L55.8017036,73.5658245 L55.6791417,74.273045 L55.554509,74.9659242 L55.497555,75.3107513 L55.4422937,75.6712313 L55.269571,76.7249433 L55.0533197,78.1439959 L55.0024352,78.5055165 L54.8989304,79.2116079 L54.7038523,80.6447451 L54.5206653,82.0870293 L54.4340376,82.8058837 L54.393294,83.1721079 L54.3107721,83.8923162 L54.2729997,84.264931 L54.2313844,84.6233046 L54.0807368,86.0794446 L53.9438666,87.5423751 L53.8204549,89.0113963 L53.765751,89.7582761 L53.7354885,90.1200976 L53.710104,90.4924744 L53.6566901,91.2222753 L53.6367822,91.6007586 L53.5870015,92.3358243 L53.5672578,92.7157086 L53.5019641,93.8255118 L53.4480166,94.9367984 L53.4342148,95.3160508 L53.4170361,95.689059 L53.4032206,96.0686067 L53.3862613,96.4308104 L53.3763741,96.8145491 L53.3629292,97.1845417 L53.3512149,97.5606614 L53.3378499,97.9335638 L53.3205017,98.6805178 C53.315854,98.9068077 53.1892266,99.1129023 52.989461,99.219309 L52.989461,99.219309 L52.7590431,99.3392065 L52.4323216,99.5149189 L52.3103083,99.5850689 L51.9829176,99.7665415 L51.8502813,99.8456852 L51.7430042,99.9055529 L51.4872705,100.055532 L51.4756716,100.086542 L51.436,102.828 L68.087,105.995 L68.1231025,103.462562 L68.0805421,103.321355 L67.7817558,103.026295 L67.4622688,102.716882 L67.3456554,102.606514 L67.25729,102.519338 L67.1330603,102.405672 L66.9305735,102.210706 L66.5089375,101.819814 L65.9889236,101.350129 L65.8588329,101.242033 L65.6575853,101.060498 L64.7901952,100.32472 L64.4704634,100.061574 L64.3506585,99.9669612 L64.2612008,99.8929669 L64.1299221,99.7929163 L63.8216641,99.5429434 L63.5913901,99.3692617 L63.5058449,99.3008318 L63.3625634,99.1976633 L63.2678867,99.1213681 L63.0624357,98.964345 L62.945696,98.8813382 L62.7308994,98.7231112 L62.6031473,98.633123 L62.5125186,98.5642461 L62.3742955,98.4674561 L62.2935786,98.4043749 L61.8525361,98.1011044 L61.7456403,98.0153567 L61.6817071,97.9464843 L61.6312368,97.8740714 L61.5997034,97.8253691 L61.5490721,97.7387619 L61.5092534,97.6414361 L61.4953898,97.5875631 L61.4837838,97.5535876 L61.4731584,97.5058098 L61.4663572,97.4820358 L61.4422521,97.3086349 L61.4364433,97.2366482 L61.985,57.771 Z M7.391,105.503 L5.95,105.579 L7.388,105.852 L7.391,105.503 Z M58.402,57.965 L39.3111721,59.0024475 C39.4286401,59.4404624 39.5072481,59.7986105 39.5471544,60.077601 C39.8167145,61.9621312 38.7927568,63.2333332 37.1818842,63.4966045 C37.1330259,63.5121226 37.0813167,63.521748 37.0276547,63.524687 L37.0276547,63.524687 L36.905,63.531 L36.8997503,63.5318154 L29.929,63.913 L29.8403159,70.454302 C29.8364895,70.7341258 29.6481852,70.9725914 29.3866623,71.0468949 L29.2853764,71.0668238 L29.278,71.067 L29.2658736,72.4512355 C29.2633678,72.7210032 29.0889127,72.9545112 28.8398918,73.0379624 L28.7432039,73.0620004 L28.366,73.124 L28.7193736,74.7818099 C28.8730326,75.5029676 27.8915838,75.8268042 27.5647502,75.2235698 L27.5244076,75.1355145 L26.811,73.273 L26.0733359,73.0864327 C25.8213039,73.0319991 25.6260572,72.8255978 25.5877633,72.5683375 L25.5809558,72.4696783 L25.593,71.102 L25.5444985,71.0949312 C25.2712182,71.0571697 25.0547636,70.8427994 25.0131221,70.5714428 L25.0059313,70.4672465 L25.092,64.178 L22.2472357,64.3357032 C22.2167904,64.3412921 22.1861207,64.3465235 22.1552312,64.3513946 C20.7667564,64.5703497 19.2702937,63.9940389 18.6194828,62.8982202 L18.5360671,62.7455962 L17.668,61.013 L17.277,103.73 L47.573735,102.112356 L47.723853,102.122472 L50.189,102.591 L50.2273546,99.960193 L50.2668995,99.7501946 L50.392758,99.4137079 C50.4417886,99.282623 50.5333975,99.1717878 50.6529092,99.0989579 L50.6529092,99.0989579 L51.005234,98.8879237 L51.2242202,98.7639339 L51.3528757,98.6870331 L51.8267295,98.4216039 L52.0783595,98.2855331 L52.0884593,97.8950215 L52.1371404,96.3857693 L52.1543055,96.0169241 L52.1681073,95.6376717 L52.1852861,95.2646636 L52.1992765,94.8815671 L52.2536491,93.7609354 L52.3193174,92.6442919 L52.3392871,92.2609487 L52.3890413,91.526199 L52.4092062,91.1440466 L52.4890991,90.0256342 L52.5195744,89.6607977 L52.5743412,88.9131377 L52.6988465,87.4311154 L52.8370087,85.9545711 L52.875431,85.592006 L52.9887185,84.4884028 L53.0303338,84.1300292 L53.0681498,83.7570387 L53.1925069,82.6607858 L53.2800467,81.9342808 L53.3262097,81.5731675 L53.3710521,81.2110277 L53.4645339,80.4817241 L53.6610827,79.0378754 L53.7651716,78.3275723 L53.8165483,77.9627619 L54.0345344,76.5323702 L54.3230122,74.7519085 L54.386317,74.4051812 L54.6334269,72.9946364 L54.6982688,72.6500162 L54.7614573,72.297211 L54.9615333,71.2535 L55.1675691,70.2110675 L55.3082558,69.5278726 L55.3782123,69.1730316 L55.4526707,68.826716 L55.5266041,68.4936986 L55.5998284,68.1440733 L55.7477281,67.461996 L55.9016326,66.7810957 L56.058317,66.1154152 L56.1341696,65.7689244 L56.2147393,65.4275168 L56.3762744,64.7550829 L56.708659,63.4215157 L57.2179746,61.4387248 C57.442157,60.5846058 57.6470093,59.8924997 57.8335105,59.3603142 C57.8724892,59.2490877 57.9084056,59.1483935 57.9421823,59.0557796 L57.9421823,59.0557796 L58.0828492,58.6852835 L58.2119269,58.3773838 L58.402,57.965 Z M77.115,102.921 L77.116,102.949 L77.2070633,102.922114 L77.115,102.921 Z M70.066,97.393 L63.504,97.741 L63.5646298,97.7868572 L63.8049255,97.9590104 L64.0365171,98.1357703 L64.1159083,98.2008452 L64.2549722,98.3006586 L64.353061,98.3782433 L64.5902946,98.5573456 L64.9037715,98.8115534 L65.0350502,98.911604 L65.2597248,99.0924623 L65.9202865,99.6413337 L66.4800001,100.119449 L66.6729791,100.293816 L66.8068052,100.405269 L67.3544854,100.89935 L67.7886442,101.301822 L67.9876167,101.49355 L68.1161151,101.611361 L68.329183,101.816422 L68.5319801,102.015392 L68.6527454,102.129868 L68.882,102.356 L75.635,101.996 L75.5883434,101.952804 L75.4947614,101.860683 L75.2730444,101.65326 L75.192815,101.574647 L75.060484,101.460112 L74.9621482,101.367122 L74.6484536,101.07987 L74.3272957,100.795313 L73.9965323,100.507985 L73.3624567,99.9684436 L73.2478874,99.8760711 L72.9289976,99.610126 L72.6979825,99.4293559 L72.5989871,99.3479896 L72.3793901,99.1729072 L71.6222034,98.5909184 L71.3032517,98.3553923 L71.1692714,98.2618273 L71.0660911,98.1840079 L70.7330501,97.9442127 L70.6371697,97.8738682 L70.3403632,97.6696441 C70.3205534,97.6578746 70.3010455,97.6448445 70.2819159,97.6305155 L70.2819159,97.6305155 L70.1975236,97.5589724 L70.112658,97.4610748 L70.066,97.393 Z M70.445,57.318 L63.236,57.704 L63.2111157,59.5801234 L62.695,96.533 L69.902,96.15 L70.445,57.318 Z M28.027,71.208 L27.0157162,71.3226429 L26.841,71.317 L26.8354966,71.9898684 L27.1257144,72.0632897 L28.0208029,71.9147738 L28.027,71.208 Z M28.678,63.982 L26.343,64.11 L26.2631673,69.9501138 L26.9640044,70.0705565 L28.5979649,69.8863886 L28.678,63.982 Z M16.516,49.137 L20.1530103,59.1491824 C20.2968153,59.5451161 20.0157406,59.9670345 19.5949669,59.9868557 L19.5949669,59.9868557 L18.576,60.034 L19.6538174,62.1860121 C19.9643993,62.8063891 20.8795398,63.2116493 21.7751293,63.1387383 C21.8339005,63.115286 21.8970803,63.1015036 21.9632275,63.0978808 L21.9632275,63.0978808 L22.098,63.09 L22.1128294,63.0877639 C23.0035823,62.8888146 23.4744319,62.2287405 23.3136808,61.1049085 C23.1677972,60.0850167 22.3794313,57.6937722 20.9591536,53.9785454 L20.4981022,52.7830904 L19.8419659,51.1119506 L16.516,49.137 Z M38.2981942,61.0974223 L24.5787108,61.8474496 C24.5392122,62.2680768 24.4245317,62.6454719 24.2454654,62.9728895 L36.8061076,62.2851965 C37.6082868,62.2105423 38.1482701,61.8104294 38.2981942,61.0974223 Z M18.183,48.218 L17.458,48.242 L20.6634688,50.1459864 C20.7822596,50.2165199 20.874333,50.3244247 20.9252967,50.4528339 L21.7712271,52.6081445 C23.2985635,56.5490158 24.199329,59.1813121 24.4835652,60.5500336 L24.493,60.599 L38.234262,59.8498432 C37.9941726,58.7571979 37.3236635,56.7478203 36.2285455,53.8477455 L36.0875692,53.475665 L35.4783048,51.8923186 L34.8183181,50.2122905 L33.834,49.422 L33.744571,54.990505 C33.6762587,57.1611715 32.723986,58.4437014 31.0324454,59.1125391 L30.8259213,59.1898715 C28.7843634,59.9131918 25.2855107,58.5391104 24.3166262,56.0232022 L24.3268187,56.048062 C23.7043409,54.6181769 23.1945236,53.4584084 22.7984783,52.5710843 L22.7984783,52.5710843 L22.1584132,51.160385 L21.922276,50.6673141 C21.6547818,50.1330035 21.3478448,49.7882862 21.0092549,49.6125463 L21.0632702,49.6451031 C20.9938393,49.6362135 20.9247313,49.6154195 20.8587906,49.5817978 L20.8587906,49.5817978 L18.183,48.218 Z M14.893,48.33 L11.862,48.434 L15.655,58.92 L18.6883637,58.7781763 L14.893,48.33 Z M6.645,47.331 L6.47311731,57.5831285 L14.278,58.788 L10.503,48.353 L6.645,47.331 Z M22.5708672,2.59059016 L21.9270359,48.7149881 L22.0890601,48.8422173 C22.4593554,49.1550447 22.7754502,49.5792482 23.0400263,50.10773 C23.1449299,50.3172715 23.2982275,50.6430787 23.5002336,51.0858106 L23.5002336,51.0858106 L23.894303,51.9594409 L25.472925,55.5491228 C25.4734991,55.5504415 25.4740682,55.5517611 25.4746325,55.5530816 L25.4831174,55.5739826 C26.1965607,57.4265852 28.9773699,58.5186741 30.4084747,58.0116362 C31.8115875,57.5145159 32.4985221,56.6050124 32.4985221,54.7357036 L32.4985221,54.7357036 L32.5450412,51.169137 L32.6059327,47.758106 C31.3467231,48.394675 29.4618499,48.4777018 28.4137908,47.7789957 C26.6514369,46.6040931 24.094407,43.3408359 24.094407,41.6536071 C24.094407,41.3186714 24.1940425,40.7948387 24.4029825,39.994945 L24.4029825,39.994945 L24.527848,39.5307375 L24.7565593,38.7248828 L26.3981683,33.2552968 L26.6172206,32.5021045 C27.4866054,29.4815292 27.9997685,27.279672 28.1380451,25.7586294 C28.2715629,24.2899345 28.3260977,21.8390806 28.3183644,18.4908626 L28.3183644,18.4908626 L28.3121973,17.1350773 L28.2774208,13.8339199 L28.1377515,5.25723631 C25.5372119,4.61577124 23.6793226,3.73746821 22.5708672,2.59059016 Z M73.7976753,54.3156969 C73.7179997,54.3273819 73.6355054,54.3353528 73.5504008,54.3395659 L73.5504008,54.3395659 L72.3203033,54.4181062 L38.4085321,56.1699924 C38.6150156,56.7599471 38.7940398,57.2930207 38.9456979,57.7696301 L62.585709,56.487465 L70.8988203,56.0427858 C70.9242999,56.0388609 70.9507354,56.0361752 70.9781292,56.0348198 L70.9781292,56.0348198 L74.3461384,55.8681754 Z M72.1049032,50.2663586 L71.9582476,50.266317 L70.9232127,50.3039183 L36.9266052,52.1703332 C37.3171519,53.1837111 37.664277,54.1064703 37.9681638,54.9394319 L72.1253331,53.1774635 L72.7861368,53.1338622 L73.5898422,53.0841146 C73.8027248,53.0644433 73.8577014,53.0211608 73.8728876,52.9559166 C73.9506172,52.6219678 73.8896528,52.1090854 73.6690222,51.6039465 C73.2224458,50.5814998 72.761361,50.2435756 71.9582476,50.266317 Z M70.449,45.458 L33.863,47.653 L33.86,47.84 L35.7295176,49.3407862 C35.7858036,49.3859527 35.8336255,49.4403491 35.8710858,49.5014066 L35.919268,49.5976677 C36.103284,50.0612701 36.2803067,50.5102219 36.4503476,50.9445759 L70.8642732,49.0553452 L71.784,49.021 L70.449,45.458 Z M20.7182774,43.1569392 L19.717819,45.8540702 C19.6001465,46.171303 19.2513923,46.3372895 18.9309852,46.2285568 L18.9309852,46.2285568 L18.0300322,45.9228113 L17.7709614,46.6042755 L20.685,48.09 L20.754,43.173 L20.7182774,43.1569392 Z M16.399,46.697 L10.156,46.968 L11.068,47.21 L16.3747548,47.0297928 C16.3586775,46.9502448 16.3579602,46.8670455 16.3743547,46.7847384 L16.399,46.697 Z M29.1659656,1.25 C28.4088353,1.25 26.9569867,1.31963791 24.817879,1.45883245 L24.817879,1.45883245 L23.3226912,1.56088867 C24.2507258,2.63771542 26.106271,3.51723501 28.8992267,4.15313117 C29.183669,4.21789258 29.3854784,4.47081419 29.3854784,4.76253571 C29.3854784,5.00019236 29.3875707,5.29236327 29.391852,5.65651243 L29.391852,5.65651243 L29.4962209,11.7868091 L29.5395706,14.7602253 L29.5670854,18.0577062 C29.580831,21.6650705 29.5265569,24.291701 29.3829116,25.8717991 L29.3829116,25.8717991 L29.3579323,26.1201294 C29.1817607,27.7233672 28.6643968,29.9087188 27.8184548,32.8478449 L27.8184548,32.8478449 L27.7101198,33.2222444 C27.599817,33.6014972 27.4833102,33.996394 27.3578982,34.4166875 L27.3578982,34.4166875 L26.3050039,37.9048003 L25.8826612,39.3312506 C25.5230572,40.5881102 25.344407,41.3581551 25.344407,41.6536071 C25.344407,42.8205791 27.6574384,45.7724478 29.107166,46.7389329 C30.0697176,47.3806339 32.6310617,46.7920502 32.6310617,46.08575 C32.6310617,46.0652849 32.6320453,46.0450495 32.6339679,46.0250886 L33.377,3.564 L33.3651706,3.49833765 C33.2619458,3.11472158 32.7394417,2.65977062 31.9816564,2.25075304 L31.7874148,2.14952345 C30.6040764,1.55385823 29.7782781,1.25 29.1659656,1.25 Z M64.6202403,43.979682 L33.894,45.763 L33.884,46.399 L66.557,44.439 L64.6202403,43.979682 Z"
                            fill-rule="nonzero">
                        </path>
                    </g>
                </g>
            </g>
        </g>
    </g>
</svg>