<svg width="42" height="48" viewBox="0 0 42 48" fill="none" xmlns="http://www.w3.org/2000/svg">
<path d="M0 35.9377H13.8307L10.3724 29.9499L0 35.9377Z" fill="#77C2D4"/>
<path d="M27.6642 35.9377L41.4949 11.981L20.7475 23.9594V35.9377H27.6642Z" fill="#77C2D4"/>
<path d="M20.7475 47.9188L41.4949 35.9377H27.6642L20.7475 47.9188Z" fill="#BAD97A"/>
<path d="M10.3724 29.9499L20.7475 23.9594V0L6.91402 23.9594L10.3724 29.9499Z" fill="#BAD97A"/>
<path d="M13.8307 35.9377L20.7475 47.9188V35.9377H13.8307Z" fill="#BAD97A"/>
<path d="M0 11.9783V35.9377L6.91402 23.9594L0 11.9783Z" fill="#77C2D4"/>
<path d="M41.4949 11.981L27.6642 35.9377H41.4949V11.981Z" fill="#0098BA"/>
<path d="M20.7475 23.9594L10.3724 29.9499L13.8307 35.9377H20.7475V23.9594Z" fill="#0098BA"/>
<path d="M20.7475 0L0 11.9783L6.91402 23.9594L20.7475 0Z" fill="#0098BA"/>
</svg>
