<?xml version="1.0" encoding="UTF-8" standalone="no"?>
<!DOCTYPE svg PUBLIC "-//W3C//DTD SVG 1.1//EN" "http://www.w3.org/Graphics/SVG/1.1/DTD/svg11.dtd">
<svg width="100%" height="100%" viewBox="0 0 2024 355" version="1.1" xmlns="http://www.w3.org/2000/svg"
    xmlnsXlink="http://www.w3.org/1999/xlink" xmlSpace="preserve" xmlnsSerif="http://www.serif.com/"
    style="fill-rule:evenodd;clip-rule:evenodd;stroke-linejoin:round;stroke-miterlimit:2;">
    <g transform="matrix(0.48,0,0,0.48,-93.75,-93.888)">
        <g transform="matrix(4.16667,0,0,4.16667,0,0)">
            <path d="M484.704,179.643L535.775,179.643L523.005,157.53L484.704,179.643Z"
                style="fill:rgb(105,193,210);fill-rule:nonzero;" />
        </g>
        <g transform="matrix(4.16667,0,0,4.16667,0,0)">
            <path d="M586.854,179.643L637.924,91.181L561.314,135.413L561.314,179.643L586.854,179.643Z"
                style="fill:rgb(105,193,210);fill-rule:nonzero;" />
        </g>
        <g transform="matrix(4.16667,0,0,4.16667,0,0)">
            <path d="M561.314,223.884L637.927,179.643L586.854,179.643L561.314,223.884Z"
                style="fill:rgb(173,213,131);fill-rule:nonzero;" />
        </g>
        <g transform="matrix(4.16667,0,0,4.16667,0,0)">
            <path d="M523.005,157.53L561.314,135.413L561.314,46.944L510.237,135.413L523.005,157.53Z"
                style="fill:rgb(173,213,131);fill-rule:nonzero;" />
        </g>
        <g transform="matrix(4.16667,0,0,4.16667,0,0)">
            <path d="M535.775,179.643L561.314,223.884L561.314,179.643L535.775,179.643Z"
                style="fill:rgb(173,213,131);fill-rule:nonzero;" />
        </g>
        <g transform="matrix(4.16667,0,0,4.16667,0,0)">
            <path d="M484.704,91.177L484.704,179.643L510.237,135.413L484.704,91.177Z"
                style="fill:rgb(105,193,210);fill-rule:nonzero;" />
        </g>
        <g transform="matrix(4.16667,0,0,4.16667,0,0)">
            <path d="M637.924,91.181L586.854,179.643L637.927,179.643L637.927,91.181L637.924,91.181Z"
                style="fill:rgb(18,154,184);fill-rule:nonzero;" />
        </g>
        <g transform="matrix(4.16667,0,0,4.16667,0,0)">
            <path d="M561.314,135.413L523.005,157.53L535.775,179.643L561.314,179.643L561.314,135.413Z"
                style="fill:rgb(18,154,184);fill-rule:nonzero;" />
        </g>
        <g transform="matrix(4.16667,0,0,4.16667,0,0)">
            <path d="M561.314,46.944L484.704,91.177L510.237,135.413L561.314,46.944Z"
                style="fill:rgb(18,154,184);fill-rule:nonzero;" />
        </g>
        <g transform="matrix(4.16667,0,0,4.16667,0,0)">
            <path
                d="M717.024,165.531L717.024,139.283L692.308,139.283L692.308,165.531L681.348,165.531L681.35,105.293L692.308,105.293L692.308,128.835L717.024,128.835L717.024,105.293L727.986,105.293L727.986,165.531L717.024,165.531Z"
                style="fill-rule:nonzero;" />
        </g>
        <g transform="matrix(4.16667,0,0,4.16667,0,0)">
            <path
                d="M739.424,165.531L739.424,105.293L780.536,105.293L780.536,115.236L750.368,115.236L750.368,129.261L776.71,129.261L776.71,139.11L750.368,139.11L750.368,155.588L780.532,155.588L780.532,165.531L739.424,165.531Z"
                style="fill-rule:nonzero;" />
        </g>
        <g transform="matrix(4.16667,0,0,4.16667,0,0)">
            <path
                d="M824.809,165.531L811.316,143.618L797.799,165.531L786.003,165.531L804.936,134.858L786.166,105.293L798.139,105.293L811.647,126.378L824.738,105.293L836.633,105.293L818.112,134.952L836.872,165.531L824.809,165.531Z"
                style="fill-rule:nonzero;" />
        </g>
        <g transform="matrix(4.16667,0,0,4.16667,0,0)">
            <path
                d="M864.459,118.722L855.881,144.13L873.036,144.13L864.459,118.722ZM880.348,165.531L876.433,153.979L852.485,153.979L848.58,165.531L837.537,165.531L858.685,105.293L870.659,105.293L891.807,165.531L880.348,165.531Z"
                style="fill-rule:nonzero;" />
        </g>
        <g transform="matrix(4.16667,0,0,4.16667,0,0)">
            <path
                d="M941.178,165.531L934.826,158.897C933.035,162.391 927.269,166.553 919.7,166.635C912.747,166.722 906.535,164.94 901.772,159.919C895.499,153.383 893.961,145.31 893.961,135.457C893.961,125.601 895.243,117.792 901.776,111.252C906.369,106.665 913.244,104.188 919.7,104.188C927.099,104.188 933.461,106.918 937.543,111.083C940.521,114.131 942.722,117.965 943.065,123.234L931.844,123.234C931.675,120.844 930.499,119.247 929.217,117.701C927.099,115.236 923.786,114.049 919.625,114.049C916.135,114.049 912.128,115.583 909.755,118.123C905.604,122.458 905.095,129.939 905.095,135.457C905.095,140.979 905.687,148.71 909.844,153.048C912.232,155.588 916.135,156.87 919.625,156.87C923.522,156.87 926.583,155.505 928.63,153.383C931.844,149.987 932.53,146.252 932.53,141.657L918.174,141.657L918.174,132.562L943.152,132.562L943.152,165.531L941.178,165.531Z"
                style="fill-rule:nonzero;" />
        </g>
        <g transform="matrix(4.16667,0,0,4.16667,0,0)">
            <path
                d="M986.48,118.123C984.096,115.583 980.432,114.131 976.949,114.131C973.482,114.131 969.806,115.583 967.44,118.123C963.29,122.458 963.103,129.939 963.103,135.457C963.103,140.979 963.29,148.37 967.44,152.705C969.806,155.261 973.482,156.696 976.949,156.696C980.432,156.696 984.096,155.261 986.48,152.705C990.633,148.37 990.81,140.979 990.81,135.457C990.81,129.939 990.633,122.458 986.48,118.123ZM994.279,159.84C989.692,164.427 983.409,166.635 976.949,166.635C970.512,166.635 964.217,164.427 959.622,159.84C953.079,153.293 951.975,145.31 951.975,135.457C951.975,125.601 953.079,117.527 959.622,110.992C964.217,106.405 970.512,104.188 976.949,104.188C983.409,104.188 989.692,106.405 994.279,110.992C1000.82,117.527 1001.93,125.601 1001.93,135.457C1001.93,145.31 1000.82,153.293 994.279,159.84Z"
                style="fill-rule:nonzero;" />
        </g>
        <g transform="matrix(4.16667,0,0,4.16667,0,0)">
            <path
                d="M1047.17,165.531L1021.09,124.157L1021.09,165.531L1010.3,165.531L1010.3,105.293L1021.94,105.293L1047.68,146.071L1047.68,105.293L1058.46,105.293L1058.46,165.531L1047.17,165.531Z"
                style="fill-rule:nonzero;" />
        </g>
        <g transform="matrix(4.16667,0,0,4.16667,0,0)">
            <path
                d="M408.11,144.278C410.842,144.278 413.049,142.946 413.049,140.002C413.049,137.236 410.877,135.624 408.11,135.624L401.139,135.624L401.139,144.278L408.11,144.278ZM408.039,132.892C410.632,132.892 412.489,131.665 412.489,128.97C412.489,126.377 410.456,125.082 408.005,125.082L401.139,125.082L401.139,132.892L408.039,132.892ZM398.091,122.312L408.25,122.312C412.523,122.312 415.676,124.8 415.676,128.724C415.676,131.106 414.415,133.382 412.103,134.224C414.66,135.065 416.237,137.586 416.237,140.213C416.237,144.452 412.909,147.15 408.284,147.15L398.091,147.15L398.091,122.312Z"
                style="fill-rule:nonzero;" />
        </g>
        <g transform="matrix(4.16667,0,0,4.16667,0,0)">
            <path
                d="M418.281,122.312L421.784,122.312L428.3,134.05L434.78,122.312L438.108,122.312L429.771,136.99L429.771,147.15L426.618,147.15L426.618,136.99L418.281,122.312Z"
                style="fill-rule:nonzero;" />
        </g>
        <g transform="matrix(4.16667,0,0,4.16667,0,0)">
            <path d="M419.225,224.185L419.225,165.762L416.975,165.762L416.975,224.185" style="fill-rule:nonzero;" />
        </g>
        <g transform="matrix(4.16667,0,0,4.16667,0,0)">
            <path d="M419.225,105.226L419.225,47.226L416.975,47.226L416.975,105.226" style="fill-rule:nonzero;" />
        </g>
        <g transform="matrix(4.16667,0,0,4.16667,0,0)">
            <path
                d="M217.054,115.446C219.774,118.166 219.775,122.577 217.054,125.297C214.334,128.018 209.923,128.017 207.203,125.297C204.482,122.576 204.482,118.166 207.203,115.446C209.923,112.726 214.333,112.725 217.054,115.446Z"
                style="fill-rule:nonzero;" />
        </g>
        <g transform="matrix(4.16667,0,0,4.16667,0,0)">
            <path
                d="M187.028,115.446C189.749,118.166 189.749,122.577 187.028,125.297C184.308,128.018 179.897,128.018 177.177,125.297C174.457,122.577 174.457,118.166 177.177,115.446C179.897,112.726 184.308,112.726 187.028,115.446Z"
                style="fill-rule:nonzero;" />
        </g>
        <g transform="matrix(4.16667,0,0,4.16667,0,0)">
            <path
                d="M172.015,100.433C174.735,103.153 174.736,107.564 172.015,110.284C169.295,113.005 164.884,113.004 162.164,110.284C159.443,107.563 159.444,103.154 162.164,100.433C164.885,97.713 169.294,97.713 172.015,100.433Z"
                style="fill-rule:nonzero;" />
        </g>
        <g transform="matrix(4.16667,0,0,4.16667,0,0)">
            <path
                d="M202.041,130.459C204.761,133.179 204.762,137.59 202.041,140.31C199.321,143.031 194.91,143.03 192.19,140.31C189.469,137.589 189.469,133.179 192.19,130.459C194.91,127.738 199.32,127.738 202.041,130.459Z"
                style="fill:rgb(154,205,116);fill-rule:nonzero;" />
        </g>
        <g transform="matrix(4.16667,0,0,4.16667,0,0)">
            <path
                d="M232.067,100.433C234.787,103.153 234.787,107.564 232.067,110.284C229.347,113.005 224.936,113.004 222.216,110.284C219.495,107.563 219.495,103.154 222.216,100.433C224.936,97.714 229.346,97.713 232.067,100.433Z"
                style="fill-rule:nonzero;" />
        </g>
        <g transform="matrix(4.16667,0,0,4.16667,0,0)">
            <path
                d="M177.177,155.323C174.457,152.603 174.457,148.192 177.177,145.471C179.897,142.751 184.308,142.751 187.028,145.471C189.749,148.192 189.749,152.602 187.028,155.323C184.308,158.043 179.898,158.044 177.177,155.323Z"
                style="fill-rule:nonzero;" />
        </g>
        <g transform="matrix(4.16667,0,0,4.16667,0,0)">
            <path
                d="M207.203,155.323C204.482,152.602 204.482,148.192 207.203,145.471C209.923,142.751 214.334,142.751 217.054,145.471C219.775,148.192 219.775,152.602 217.054,155.323C214.334,158.043 209.923,158.043 207.203,155.323Z"
                style="fill-rule:nonzero;" />
        </g>
        <g transform="matrix(4.16667,0,0,4.16667,0,0)">
            <path
                d="M222.216,170.336C219.496,167.616 219.495,163.205 222.216,160.484C224.936,157.764 229.347,157.764 232.067,160.484C234.788,163.205 234.787,167.615 232.067,170.336C229.347,173.056 224.937,173.057 222.216,170.336Z"
                style="fill-rule:nonzero;" />
        </g>
        <g transform="matrix(4.16667,0,0,4.16667,0,0)">
            <path
                d="M162.164,170.336C159.444,167.616 159.444,163.204 162.164,160.484C164.885,157.764 169.295,157.764 172.015,160.484C174.736,163.205 174.736,167.615 172.015,170.336C169.295,173.056 164.885,173.057 162.164,170.336Z"
                style="fill-rule:nonzero;" />
        </g>
        <g transform="matrix(4.16667,0,0,4.16667,0,0)">
            <path
                d="M46.875,108.503L54.754,108.503L55.499,116.807C58.267,110.419 66.038,107.013 72.106,107.013C84.35,107.013 91.056,114.358 91.056,126.814L91.056,162.266L82.008,162.266L82.008,128.092C82.008,120.214 78.388,115.21 70.403,115.21C61.354,115.21 55.925,123.088 55.925,133.095L55.925,162.266L46.875,162.266L46.875,108.503Z"
                style="fill-rule:nonzero;" />
        </g>
        <g transform="matrix(4.16667,0,0,4.16667,0,0)">
            <path
                d="M141.14,130.647C141.14,121.385 136.03,114.678 126.555,114.678C116.654,114.678 111.651,122.769 111.437,130.647L141.14,130.647ZM108.564,155.665C103.986,150.449 101.75,143.316 101.75,135.651C101.75,129.157 102.921,123.407 106.008,118.404C109.947,111.91 117.186,107.013 126.768,107.013C141.459,107.013 150.402,118.723 150.402,132.989C150.402,134.692 150.402,136.822 150.19,138.418L111.225,138.418C111.225,148.426 117.293,155.772 127.513,155.772C133.688,155.772 138.691,152.684 140.502,146.297L149.551,146.297C148.06,156.517 138.372,163.756 127.407,163.756C119.635,163.756 112.928,160.669 108.564,155.665Z"
                style="fill-rule:nonzero;" />
        </g>
        <g transform="matrix(4.16667,0,0,4.16667,0,0)">
            <path
                d="M246.745,143.955L246.745,108.503L255.794,108.503L255.794,142.677C255.794,150.661 259.521,155.558 267.398,155.558C276.66,155.558 281.344,148.107 281.344,137.46L281.344,108.503L290.393,108.503L290.393,162.266L282.516,162.266L281.877,153.536C279.641,160.136 272.402,163.756 266.014,163.756C254.304,163.756 246.745,156.197 246.745,143.955Z"
                style="fill-rule:nonzero;" />
        </g>
        <g transform="matrix(4.16667,0,0,4.16667,0,0)">
            <path
                d="M301.087,145.232L310.136,145.232C310.349,152.471 316.204,156.197 324.188,156.197C330.683,156.197 336.751,153.323 336.751,147.255C336.751,143.209 333.77,140.654 328.234,139.803L316.311,137.886C308.432,136.609 303.003,131.711 303.003,123.514C303.003,113.72 312.585,107.013 323.337,107.013C335.261,107.013 344.31,113.826 344.31,124.153L335.261,124.153C335.047,118.084 330.15,114.571 323.337,114.571C316.736,114.571 311.627,117.765 311.627,123.088C311.627,127.134 314.607,129.05 318.972,129.795L331.641,131.818C339.306,133.095 345.587,138.525 345.587,146.616C345.587,157.688 335.9,163.756 323.763,163.756C310.988,163.756 301.087,156.623 301.087,145.232Z"
                style="fill-rule:nonzero;" />
        </g>
        <g transform="matrix(4.16667,0,0,4.16667,0,0)">
            <path
                d="M346.076,104.876C346.076,103.853 346.712,102.966 347.822,102.966C348.71,102.966 349.356,103.545 349.423,104.355L348.69,104.355C348.623,103.834 348.256,103.593 347.822,103.593C347.166,103.593 346.799,104.172 346.799,104.876C346.799,105.619 347.176,106.16 347.822,106.16C348.256,106.16 348.623,105.919 348.69,105.397L349.423,105.397C349.346,106.227 348.681,106.787 347.822,106.787C346.79,106.787 346.076,105.967 346.076,104.876ZM350.63,104.876C350.63,103.188 349.501,101.953 347.793,101.953C346.085,101.953 344.956,103.197 344.956,104.886C344.956,106.575 346.085,107.81 347.793,107.81C349.501,107.81 350.63,106.564 350.63,104.876ZM344.31,104.886C344.31,102.908 345.796,101.336 347.793,101.336C349.79,101.336 351.276,102.899 351.276,104.876C351.276,106.854 349.79,108.427 347.793,108.427C345.796,108.427 344.31,106.864 344.31,104.886Z"
                style="fill-rule:nonzero;" />
        </g>
    </g>
</svg>