<svg fill="#005072" xmlns="http://www.w3.org/2000/svg" width="148" height="148" viewBox="0 0 148 148">
    <g fill-rule="evenodd">
        <g >
            <g>
                <g>
                    <path d="M20.98 1.115c.076-.959 2.488-1.253 4.982-1.058 2.476.192 4.763.851 4.688 1.824l-.355 3.592c.21.12.339.354.315.604L28.9 24.59l-.002.02-.002.01-.004.03-.01.04c-.094.465-.448.724-.9.842l-.091.021-.415 4.55c.396.281.564.642.526 1.124l-.56 6.558c-.538 6.111-1.268 14.1-1.47 15.67l-.038.252c-.087.368-.332.644-.688.84L24.014 68.04v.019l-.43 4.103c1.262-.265 2.674-.174 4.118.482.225.103.37.328.368.575l-.006 1.136v.008l-.02 3.501.01 1.821.858 1.637.918 1.767.496.98c.072-.035.151-.089.231-.158l-1.791-3.713c-.203-.42.107-.907.574-.9l1.654.021c.23.004.44.132.547.336l1.38 2.62c.266.046.505.18.702.39l.132-.07c.546-.285 1.188-.57 1.92-.833 1.11-.4 2.333-.72 3.663-.93 2.418-.38 4.773-.457 6.767-.361l.105.005.466.03c.405.035.67.44.541.825l-1.573 4.685c-.097.286-.383.463-.682.422l-.144-.018-.481-.046c-1.704-.137-3.582-.083-5.335.297-1.08.234-2.04.582-2.849 1.054l.005-.004-.004.003-4.162 2.441c-.178.104-.396.115-.583.028l-.36-.169.057 3.841c.003.145-.045.284-.133.396l-.073.079-.747.677c-.11.1-.252.157-.4.162l-1.034.035c-.162.005-.32-.052-.44-.16l-.433-.389-.354.115-.034.01v4.507c0 .366-.305.636-.757.81v1.161c0 .213-.069.394-.185.542l-.472.798v.356c.159.177.254.411.254.667 0 .555-.45 1.004-1.004 1.004s-1.004-.45-1.004-1.004c0-.243.086-.466.23-.64v-.357l-.56-.786c-.015-.022-.03-.045-.042-.07-.103-.141-.162-.311-.162-.51v-1.16c-.452-.175-.758-.445-.758-.81v-1.31c-.232.246-.547.51-.938.812-.377.289-.745.358-1.05.245.974 1.347 1.504 2.641 1.669 4.354l.458 4.647.114 1.345c.293 3.763.286 6.58-.175 8.511l.45.277.229.153c.948.662 1.301 1.396 1.301 2.848l-.105 11.012c-.116 1.972-2.516 3.932-6.19 4.72l-.002 2.923c2.922.127 7.613 1.212 7.613 2.627l-.007-.095c.005.031.007.063.007.095v2.033c0 2.143-4.31 3.506-11.017 3.506-6.575 0-11.017-1.044-11.017-2.667v-2.04c.01-2.085 4.11-3.308 7.414-3.428v-2.89c-3.98-.725-6.52-2.674-6.52-4.834v-10.798c-3.066-2.615-5.89-6.895-5.075-8.946.79-1.992 4.728-3.418 6.644-3.136.607.09 1.167.444 1.814 1.125-.104-.461-.18-.879-.235-1.25l-.029-.22c-.638-.266-1.275-.657-1.887-1.175-2.744-2.322-3.043-4.378-2.099-11.228l.031-.216c.273-1.851.927-4.853 1.881-8.754l.356-1.443.677-2.676.026-.102 6.567-67.607-.156-.01c-.23-.014-.433-.153-.53-.361l-.035-.077-.22-.5c-.188-.444-.376-.918-.552-1.404-.175-.482-.329-.951-.455-1.398-.132-.47-.232-.906-.294-1.305-.414-2.644.995-5.447 3.62-5.762l.21-.02.226-.012c.622-.025 1.198.026 1.72.148.057 0 .114.01.171.026l2.474.754c.184-.167.424-.349.724-.527l-.088.054zm4.136 143.141c-1.646 1.02-4.825 1.64-9.025 1.705l-.735.006c-4.501 0-8.003-.49-9.764-1.318l.001.594c.059.058.163.131.31.21.39.21.995.42 1.779.603 1.85.435 4.478.689 7.673.689 3.237 0 5.845-.322 7.628-.886 1.43-.452 2.134-1.004 2.134-1.365zm-5.8-3.099l.384.468c.091.112.142.253.142.398 0 1.071-1.692 1.316-4.592 1.287l-.284-.004c-2.706-.043-4.295-.316-4.295-1.283 0-.154.056-.302.158-.417l.393-.443c-2.444.225-5.446 1.143-5.62 2.055.06.057.16.127.301.203.39.21.995.418 1.779.602 1.85.435 4.478.688 7.674.688 3.236 0 5.844-.322 7.627-.885 1.372-.434 2.075-.959 2.13-1.32l-.012.049-.006-.003-.077-.054c-.115-.074-.28-.156-.487-.24-.52-.21-1.264-.417-2.154-.607l-.272-.056c-.938-.19-1.979-.348-2.79-.438zm5.797 1.35l-.012.048.01.007h.005v-.037l-.003-.018zm-7.608-5.38c-.725.096-1.49.147-2.287.147-.77 0-1.509-.04-2.211-.118v3.647c0 .154-.056.302-.158.417l-.532.6c.095.02.2.037.312.054.697.106 1.651.17 2.634.18 1 .01 1.945-.037 2.624-.136l.069-.01.308-.055-.618-.755c-.091-.112-.141-.252-.141-.397zm5.165-18.003c-.112.247-.238.472-.377.673.338 2-1.778 3.304-5.233 3.742-3.443.438-6.936.184-9.437-.78l.01.009.122.095.305.244c1.455 1.214 2.358 2.452 2.717 4.096.2.914.393 2.223.579 3.832l.076.68c.05.46.099.929.145 1.403l.133 1.432.095 1.162c.124.024.25.046.378.068.061-.022.128-.033.196-.033.135 0 .26.042.362.114.769.102 1.597.157 2.477.157.943 0 1.827-.075 2.64-.208.013-.007.026-.013.04-.018l.139-1.33c.145-1.295.31-2.59.493-3.802.3-1.992.617-3.555.954-4.55.371-1.096 1.072-2.124 2.143-3.323l1.572-1.694c.215-.245.36-.437.44-.555l.059-.093.019-.037c-.005-.047-.004-.094.002-.139-.097-.407-.303-.643-.683-.909l-.241-.16zm1.121 3.18c-.41.44-1.023 1.09-1.228 1.32l-.235.267c-.834.967-1.376 1.797-1.655 2.622-.306.905-.612 2.411-.902 4.334-.18 1.194-.343 2.474-.487 3.755l-.07.647-.028.277c2.815-.752 4.514-2.23 4.514-3.485l.081-8.174zm-17.305 1.164v8.673c0 1.23 1.493 2.527 4.035 3.265l-.035-.44-.158-1.725c-.069-.705-.142-1.398-.22-2.062-.15-1.308-.307-2.412-.463-3.243l-.095-.466c-.29-1.327-1.034-2.348-2.294-3.398-.048-.04-.113-.092-.191-.154l-.58-.45zm.133-12.965c-1.405-.206-4.76 1.008-5.295 2.357-.553 1.392 2.247 5.527 5.017 7.773 1.988 1.612 6.317 2.2 10.56 1.66 1.743-.22 2.977-.653 3.63-1.19-3.23 1.299-7.334-.391-9.593-4.432l-.015 3.561 1.405.07c.314.015.563.26.593.565l.002.093c-.017.346-.311.613-.658.595l-2.003-.099-.016-.001c-.4-.022-1.043-.162-1.846-.51-1.322-.573-2.636-1.545-3.853-3.003-1.463-1.753-2.192-2.878-2.386-3.833-.247-1.215.39-2.084 1.808-2.641 1.823-.716 2.976-.329 4.13 1.07.138.167.277.347.459.59l.21.284.924 1.226.003-.727-.045-.117-.009-.012c-1.435-2.078-2.406-3.188-3.022-3.279zm15.214-2.926c-.933 3.549-7.559 4.191-8.253 1.19l-.152-.655c-.97.996-2.317 1.406-3.75 1.184.054.319.127.673.218 1.06.362 1.523.941 3.211 1.786 5.017 2.028 4.332 6.202 5.938 9.034 4.238.422-.253.749-.753.986-1.492.008-.095.038-.188.09-.274l-.023.048c.41-1.465.508-3.757.337-6.822l-.049-.786-.058-.797c-.03-.388-.063-.78-.1-1.193zM9.68 117.599c-.657.165-1.236.397-1.74.681-.287.16-.533.329-.742.497.564.436 1.134.77 1.702 1.016.273.118.53.21.77.277zm-2.548-4.262c-.83-1.005-1.422-1.204-2.703-.7-.903.354-1.146.685-1.037 1.222.124.607.659 1.478 1.722 2.795l.398.484c.24.287.483.553.728.797.27-.235.63-.494 1.084-.75.619-.347 1.324-.627 2.118-.82l-.025-.032-.674-.87-1.115-1.483-.344-.454zm10.45-13.673c-.408-.015-.947.09-1.578.305-.44.15-.91.346-1.396.578-.42.2-.826.415-1.203.63l.067-.038c1.133 1.965 1.576 3.904.909 5.52l.423 1.825c.132.57 1.476 1.035 2.965.852 1.696-.208 2.837-1.103 2.915-2.489.195-3.435-1.605-7.126-3.102-7.183zm-5.893-27.767l-.442 1.602-.825 3.038c-.596 2.213-1.186 4.444-1.743 6.61l-.103.397-.009.096c-.008.09-.036.174-.077.248l-.512 2.014c-1.248 4.977-2.085 8.731-2.368 10.783l-.051.374c-.795 5.903-.57 7.667 1.454 9.495l.263.229c2.333 1.974 4.858 1.664 5.88-.459.626-1.3.127-3.136-1.064-5.027l-.03-.037-.023-.042c-.374-.589-.816-1.181-1.311-1.764-1.439-1.692-1.278-7.707-.404-11.51l.117-.52c.308-1.409.601-3.023.878-4.802.373-2.403.698-4.98.973-7.557.096-.902.179-1.74.249-2.491l.046-.514c-.33-.044-.634-.098-.898-.163zm13.57 31.971l-.018.003-.01.002c.02.005.042.008.064.008h.019l-.055-.013zm-5.427-4.306l-.03.003-.1.002c.565.631 1.06 1.482 1.44 2.454-.26-.868-.686-1.637-1.31-2.46zm5.614.778c-.144.006-.29.006-.433 0v.7c.061.012.137.02.216.02.08 0 .155-.008.217-.02zM13.837 72.17l-.091.984c-.06.633-.13 1.318-.207 2.044l-.121 1.112c-.25 2.222-.537 4.426-.86 6.505-.315 2.03-.652 3.85-1.011 5.41l-.06.266c-.728 3.424-.847 8.923.196 10.15.404.475.776.955 1.112 1.437.398-.226.827-.452 1.27-.664.529-.252 1.043-.467 1.534-.634.764-.259 1.443-.393 2.03-.37.41.015.811.155 1.195.397-.111-.183-.228-.402-.344-.652l-.047-.088c-.049-.077-.11-.139-.184-.19-.121-.084-.246-.124-.3-.13l-.09-.018c-.317-.087-.512-.406-.45-.725-.348-.265-.656-.635-.885-1.114l-.002-.003c-.026-.054-.044-.113-.053-.176l-.002-.014-.004-.038v-.04l-.001-.761c-.568-1.35-.818-2.895-.723-4.779l.057-1.405.399-12.497c-.527-.42-.878-.83-.965-1.18-.24-.96-.098-1.874.35-2.824-.317.016-.671.02-1.06.016l-.343-.006-.34-.013zm11.66 22.271c-.18.05-.367.087-.562.114-.229.032-.444.048-.68.054l-.002 4.387.172.035c.225.037.508.058.803.058.369 0 .72-.033.96-.089l.015-.004.001-4.19c-.078-.032-.16-.07-.247-.113-.068-.033-.137-.07-.208-.108l-.117-.065zm-3.986 1.046c-.24.247-.451.536-.625.87l-.08.14c-.301.492-.762.814-1.28.953.033.055.063.112.09.172l.091.188c.087.174.172.323.248.445.006-.01.015-.012.024-.013l.036-.015c.088-.045.154-.105.2-.187.278-.484.77-.729 1.187-.32.336-.264.564-.47.701-.636l.034-.04c.038-.042.048-.04.07-.002l-.064-.131-.28-.616zm-.686-1.081l-2.822 1.45c.6.622 1.458.52 1.769-.078l.151-.27c.263-.44.58-.816.938-1.136l-.036.034zm2.154.165l-.201.075c-.078.03-.152.061-.225.095l.174.4.27.609v-1.174c-.01 0-.015-.001-.018-.002v-.003zM18.942 83.82c-.731 0-1.247.509-1.224 1.082v9.689l6.02-3.092-1.11-.823c-.117-.087-.2-.212-.236-.354l-.677-2.742c-.56-2.27-1.846-3.76-2.773-3.76zm9.987 10.13l-.252.008.44.16-.188-.168zm-.803-6.19l-.338.168-.613 2.804c-.023.106-.073.204-.145.284l-.45.505c.062.068.119.144.169.226.393.643.361 1.361-.04 1.91.027.011.039.017.032.017l.025-.003.105-.023.256-.07.3-.098.334-.12c.22-.085.469-.039.644.119l.524.47.551-.018.367-.332-.063-4.291-1.658-1.549zm-2.954 4.452l-.08.002-2.16 1.109h.058l.12.002.4.015c.554.024.894.021 1.253-.029.155-.02.298-.05.43-.089.568-.164.691-.482.485-.82-.04-.064-.108-.112-.219-.146-.134-.041-.294-.051-.429-.04zm1.655-7.253l-3.792 2.731.522 2.112 1.558 1.154c.09-.001.18.003.274.012l.595-.665.641-2.936c.03-.138.106-.26.213-.35l-.011-2.058zm-.734 5.222l-.11.122-.034.161.144-.283zm5.548-1.267l-.284.167.583-.027-.299-.14zM28.07 82.43l.022 3.962c.202-.048.418.007.574.152l2.1 1.963.876.407 3.135-1.838-.188-.222c-.691-.85-1.386-2.094-1.766-3.123l-.05-.132c-.042-.097-.06-.095-.115-.078-.186.055-.453.29-.646.597l-.124.183c-.3.416-.682.751-1.071.923-.63.278-1.282.114-1.583-.532l-.029-.062-.356-.708-.78-1.492zm17.183-.734c-1.736-.039-3.709.06-5.719.376-1.25.197-2.395.496-3.432.87-.678.244-1.268.505-1.766.765l-.138.073c.45 1.006 1.179 2.164 1.694 2.658.844-.442 1.799-.768 2.845-.995 1.892-.41 3.885-.468 5.702-.321l.176.015 1.15-3.425zM22.68 80.394l-1.054.242-.525 3.035c.634.67 1.188 1.611 1.575 2.731l4.143-2.984-.016-2.883c-.971.103-1.974.094-2.948.006l-.488-.05-.344-.044-.276-.04-.067-.013zm-5.255-3.398v.044c-.07 2.306-.134 4.37-.19 6.149.44-.386 1.038-.624 1.707-.624.345 0 .693.087 1.032.251l.486-2.806c.043-.25.232-.449.479-.505l1.111-.254.017-.577h-.002c-.303-.047-.597-.105-.884-.175-1.311-.32-2.668-.882-3.756-1.503zm12.913 3.57l1.1 2.28c.082-.078.166-.15.253-.214l-1.087-2.063-.266-.004zm-7.813-1.424l-.475.109-.013.476.011-.09c.048-.252.24-.44.475-.494h.002zm4.268-.528l-.073.013-.176.025c-1.059.147-2.153.21-3.226.15l-.012.416.207.026.45.046c1.053.095 2.14.091 3.155-.06l-.321.04-.004-.656zm-9.546-6.819c-.731 1.085-1.023 2.005-.8 2.897.034.134.244.341.577.583.12.037.222.109.299.204.978.638 2.625 1.427 4.156 1.8.25.061.51.112.777.154l.294.038c.056-.015.115-.022.177-.02.096.002.186.026.267.067.955.086 1.949.057 2.921-.052l.608-.079.269-.042.013-2.235c-1.523.205-3.255.105-5.023-.505-.462-.16-.964-.41-1.52-.747-.208-.125-.421-.261-.646-.411l-.468-.32-1.663-1.18-.066-.041c-.027-.015-.053-.032-.077-.05l-.095-.06zm2.784-60.066l-.086.26c-.179.515-.395 1.034-.642 1.554-.197.413-.404.806-.614 1.174l-.292.493-.144.23-.158.238c-.125.18-.336.283-.555.269l-2.383-.152-5.825 59.964.326-1.206.998-3.631c.108-.386.544-.573.898-.386l.085.04c.472.191 1.679.346 2.893.358.22.002.432 0 .632-.008l3.244-34.769c.006-.066.022-.128.047-.186l.292-5.343.026-.378.02-.13c.062-.307.234-.525.507-.68l.87-17.552c-.046-.054-.092-.107-.139-.159zM26.55 73.54c-1.053-.339-2.064-.326-2.965-.09l-.129.037-.01.002-.025.265c1.189.243 2.336.245 3.363.091l.028-.005.002-.208zm-7.987-5.143l-.19 2.638 1.72 1.219c.295.201.563.375.819.53.487.294.914.507 1.28.634l.47-4.48c-.352.025-.765.011-1.233-.032l-.43-.045-.459-.059c-.791-.109-1.46-.237-1.977-.405zm-.5-15.022l-1.624 17.388.03-.043.002-.001.009-.013.01-.013.05-.063c.194-.23.382-.308.623-.263l.218-3.04c0-.035.003-.072.008-.11l.726-13.791-.053-.051zm1.27.79l-.68 12.89c.085.042.201.088.343.135.437.145 1.058.278 1.716.369.658.09 1.292.13 1.752.11.129-.006.24-.017.328-.03L23.952 54.9c-.803.082-1.765.006-2.73-.187-.705-.14-1.347-.323-1.89-.55zm-.69 13.052l-.001.034.001.041.001-.02v-.055zm2.487-36.878c-.42.023-.766.07-1 .138-.047.014-.086.028-.118.04l-.006.1-1.182 21.647c-.005.086.076.192.225.307.047.025.089.054.127.088.45.294 1.294.624 2.293.824 1.017.204 2.129.206 2.752.114.125-.128.305-.2.498-.182h-.005l.021-.132c.183-1.352 1.114-11.654 1.66-17.93l.357-4.226c-.003.036-.296-.147-.984-.32-.73-.186-1.693-.322-3.025-.45l-.19-.012-.538-.018c-.3-.006-.6-.003-.885.012zm.212-16.73l-.768 15.512c.154-.015.318-.026.49-.035.316-.017.645-.02.97-.015l.486.016.337.02.929.095c1.018.114 1.839.239 2.477.402l.432-4.76c-.5-.058-.995-.067-1.46-.011l-.034.004c-.346.044-.661-.202-.703-.548-.013-.109-.041-.319-.086-.615l-.1-.622-.186-1.025c-.33-1.703-.76-3.406-1.3-4.99-.443-1.301-.938-2.454-1.484-3.428zm3.085-7.857c-1.25-.088-2.23.15-2.98.595-.368.218-.589.426-.675.54-.159.21-.432.298-.684.221l.056.012c.277.615.407 1.346.366 2.184l-.015.227-.018.189c-.02.195-.05.392-.085.59 1.482 1.348 2.67 3.529 3.623 6.322.56 1.644 1.004 3.4 1.344 5.157.119.614.216 1.184.294 1.697l.009.057c.669-.021 1.354.053 2.025.192l-.362-.069c.035-.003.072-.002.109.001.078.007.15.028.217.06l.036.008.032.007L29.31 6.499l-.44-.1c-.376-.08-.782-.162-1.212-.239-1.067-.19-2.157-.333-3.233-.408zm-8.85.38l-.175.017c-1.783.244-2.814 2.31-2.5 4.317.054.345.143.734.262 1.158.118.416.262.856.427 1.311.112.309.23.613.348.907l.18.433.087.202 3.05.194.148-.243c.261-.433.522-.913.766-1.425.563-1.183.944-2.349 1.059-3.418l.015-.158.013-.207c.096-2.175-1.272-3.253-3.68-3.089zm10.288-4.824c-.949-.074-1.977-.05-2.808.05-.35.043-.643.098-.843.156l-.202 3.23c.729-.218 1.563-.31 2.502-.244 1.125.078 2.258.227 3.366.424.42.075.816.154 1.186.233l.305-3.092c-.182-.086-.45-.183-.776-.277-.786-.226-1.781-.406-2.73-.48z" transform="translate(-104.000000, -313.000000) translate(103.000000, 193.000000) translate(1.000000, 120.000000) translate(51.000000, 0.000000)"/>
                </g>
            </g>
        </g>
    </g>
</svg>
